<svg xmlns="http://www.w3.org/2000/svg" xmlns:xlink="http://www.w3.org/1999/xlink" viewBox="0 0 1216.8 1171.57"><defs><style>.\39 c993ff8-6b64-472f-ae31-85d14de3eee0{fill:url(#de86a914-86ba-4506-bc68-8fa79b4b365e);}.\35 6ae924f-ea95-4aef-919c-86912cee04ba{stroke:#e6e6e6;fill:url(#3544e93e-4afb-4c57-925e-27fcd75a51a6);}.\30 dafbe85-7203-4bfe-b8ff-f8e20fcc0ae8,.\31 09de012-f3de-4e30-9d6f-44d5db522da0,.\34 0706e8f-9956-472f-8a54-7bac61f0349a,.\34 3f94163-1d21-457e-95ce-c83cc514f97f,.\35 6ae924f-ea95-4aef-919c-86912cee04ba,.\36 bf27618-8783-4ddc-a101-926cf12700ef,.\37 7c39695-0487-4116-8d48-dd8c6c2fb274,.a51ecdb7-28ad-4bd5-bac3-0fd48ea70354,.ce94c448-8e35-4171-abe9-bd4501f0c60c{stroke-miterlimit:10;}.\34 0706e8f-9956-472f-8a54-7bac61f0349a,.\37 7c39695-0487-4116-8d48-dd8c6c2fb274{fill:#f2f2f2;}.\30 dafbe85-7203-4bfe-b8ff-f8e20fcc0ae8,.\31 09de012-f3de-4e30-9d6f-44d5db522da0,.\34 0706e8f-9956-472f-8a54-7bac61f0349a,.\34 3f94163-1d21-457e-95ce-c83cc514f97f,.\36 bf27618-8783-4ddc-a101-926cf12700ef,.\37 7c39695-0487-4116-8d48-dd8c6c2fb274,.ce94c448-8e35-4171-abe9-bd4501f0c60c{stroke:#cdcccc;}.\34 0706e8f-9956-472f-8a54-7bac61f0349a{stroke-width:2.16px;}.\30 dafbe85-7203-4bfe-b8ff-f8e20fcc0ae8,.\31 09de012-f3de-4e30-9d6f-44d5db522da0{fill:#dd6366;}.\30 dafbe85-7203-4bfe-b8ff-f8e20fcc0ae8,.ce94c448-8e35-4171-abe9-bd4501f0c60c{stroke-width:0.5px;}.\31 09de012-f3de-4e30-9d6f-44d5db522da0{stroke-width:0.2px;}.\34 3f94163-1d21-457e-95ce-c83cc514f97f,.\36 bf27618-8783-4ddc-a101-926cf12700ef,.\37 7c39695-0487-4116-8d48-dd8c6c2fb274{stroke-width:2px;}.\34 3f94163-1d21-457e-95ce-c83cc514f97f,.ce94c448-8e35-4171-abe9-bd4501f0c60c{fill:none;}.\36 bf27618-8783-4ddc-a101-926cf12700ef{fill:#2687c1;opacity:0.39;}.a51ecdb7-28ad-4bd5-bac3-0fd48ea70354{stroke:#fbded1;stroke-width:20px;opacity:0.87;fill:url(#3e53dba1-0b8d-44d2-9a15-b57ce2fe4877);}</style><linearGradient id="de86a914-86ba-4506-bc68-8fa79b4b365e" x1="11.93" y1="1182.5" x2="1205.37" y2="-10.94" gradientUnits="userSpaceOnUse"><stop offset="0.5" stop-color="#ef785c"/><stop offset="1" stop-color="#f08223" stop-opacity="0.8"/></linearGradient><linearGradient id="3544e93e-4afb-4c57-925e-27fcd75a51a6" x1="0" y1="585.3" x2="1054.48" y2="585.3" xlink:href="#de86a914-86ba-4506-bc68-8fa79b4b365e"/><linearGradient id="3e53dba1-0b8d-44d2-9a15-b57ce2fe4877" x1="462.01" y1="565.05" x2="811.53" y2="565.05" gradientTransform="translate(-212.72 509.14) rotate(-37.82)" gradientUnits="userSpaceOnUse"><stop offset="0.03" stop-color="#11b6ca"/><stop offset="0.5" stop-color="#6ac4cd"/><stop offset="1" stop-color="#5a98cc" stop-opacity="0.8"/></linearGradient></defs><title>villa-draw</title><g id="0dd4a60f-6aaf-4bfd-9289-fc2f2bbab151" data-name="fond"><rect class="9c993ff8-6b64-472f-ae31-85d14de3eee0" x="0.5" y="0.49" width="1216.3" height="1170.58"/></g><g id="85d53415-0eae-4ab2-8ad6-5234713f9360" data-name="Calque 3"><path class="56ae924f-ea95-4aef-919c-86912cee04ba" d="M782.77,126.32C391.17,143.83,297.36-14.22,0,1.05V1133.39c26.52,9.27,55.72,18,88.08,26.25,402,102.19,842.79-545.05,842.79-545.05S1290.56,103.61,782.77,126.32Z" transform="translate(0.5 0.49)"/></g><g id="36b53c97-bbe9-486c-8c9b-8dbd6f37ca8a" data-name="Calque 4"><polyline class="40706e8f-9956-472f-8a54-7bac61f0349a" points="617.12 278.08 266.21 713.56 266.22 713.54 21.96 516.72 372.87 81.24 617.13 278.07"/><rect class="0dafbe85-7203-4bfe-b8ff-f8e20fcc0ae8" x="235.47" y="349.19" width="188.37" height="390.98" transform="translate(426.09 -84.24) rotate(39.85)"/><rect class="0dafbe85-7203-4bfe-b8ff-f8e20fcc0ae8" x="235.47" y="287.64" width="188.37" height="390.98" transform="translate(386.65 -98.53) rotate(39.85)"/><polygon class="109de012-f3de-4e30-9d6f-44d5db522da0" points="132.59 573.36 132.59 634.91 277.21 755.61 277.21 694.06 132.59 573.36"/><polyline class="77c39695-0487-4116-8d48-dd8c6c2fb274" points="583.38 187.02 234.43 620.06 234.44 620.05 24.07 450.53 373.02 17.48 583.39 187"/><line class="43f94163-1d21-457e-95ce-c83cc514f97f" x1="231.03" y1="750.95" x2="232.87" y2="684.41"/><line class="43f94163-1d21-457e-95ce-c83cc514f97f" x1="232.9" y1="686.26" x2="234.74" y2="619.72"/><line class="43f94163-1d21-457e-95ce-c83cc514f97f" x1="19.29" y1="581.78" x2="21.12" y2="515.25"/><polygon class="6bf27618-8783-4ddc-a101-926cf12700ef" points="21.15 517.09 22.99 450.56 149.47 552.07 132.47 573.73 132.59 605.86 21.15 517.09"/><line class="43f94163-1d21-457e-95ce-c83cc514f97f" x1="583.39" y1="187" x2="576.29" y2="253.2"/><line class="43f94163-1d21-457e-95ce-c83cc514f97f" x1="615.75" y1="278.25" x2="608.65" y2="344.44"/><polygon class="0dafbe85-7203-4bfe-b8ff-f8e20fcc0ae8" points="277.21 694.06 527.74 393.89 527.74 455.44 277.21 755.61 277.21 694.06"/><polyline class="ce94c448-8e35-4171-abe9-bd4501f0c60c" points="253.13 764.86 277.21 783.63 277.21 746.09"/><line class="ce94c448-8e35-4171-abe9-bd4501f0c60c" x1="298.09" y1="761.83" x2="277.21" y2="784.47"/><polyline class="ce94c448-8e35-4171-abe9-bd4501f0c60c" points="132.59 634.91 132.59 661.07 149.47 675.07"/><polyline class="ce94c448-8e35-4171-abe9-bd4501f0c60c" points="527.74 455.44 527.74 483.63 511.8 502.07"/><rect class="a51ecdb7-28ad-4bd5-bac3-0fd48ea70354" x="555.26" y="385.05" width="163.02" height="360" transform="translate(480.73 -271.27) rotate(37.82)"/></g></svg>