<!-- Generated by IcoMoon.io -->
<svg version="1.1" xmlns="http://www.w3.org/2000/svg" width="32" height="32" viewBox="0 0 32 32">
<title>assembly</title>
<path fill="#fff" d="M14.857 19.714v-0.286h-1.714v0.286c0 0.473 0.384 0.857 0.857 0.857s0.857-0.384 0.857-0.857z"></path>
<path fill="#fff" d="M12 19.714v-0.286h-1.714v0.286c0 0.473 0.384 0.857 0.857 0.857s0.857-0.384 0.857-0.857z"></path>
<path fill="#fff" d="M17.714 19.714v-0.286h-1.714v0.286c0 0.473 0.384 0.857 0.857 0.857s0.857-0.384 0.857-0.857z"></path>
<path fill="#fff" d="M9.143 19.714v-0.286h-1.714v0.286c0 0.473 0.384 0.857 0.857 0.857s0.857-0.384 0.857-0.857z"></path>
<path fill="#fff" d="M23.429 19.714v-0.286h-1.714v0.286c0 0.473 0.384 0.857 0.857 0.857s0.857-0.384 0.857-0.857z"></path>
<path fill="#fff" d="M20.571 19.714v-0.286h-1.714v0.286c0 0.473 0.384 0.857 0.857 0.857s0.857-0.384 0.857-0.857z"></path>
<path fill="#fff" d="M12 28.571h8v1.143h-8v-1.143z"></path>
<path fill="#fff" d="M2.286 19.714v-0.286h-1.714v0.286c0 0.473 0.384 0.857 0.857 0.857s0.857-0.384 0.857-0.857z"></path>
<path fill="#fff" d="M29.714 21.11c-0.375 0.387-0.89 0.605-1.429 0.605s-1.054-0.218-1.429-0.605c-0.375 0.387-0.89 0.605-1.429 0.605s-1.054-0.218-1.429-0.605c-0.375 0.387-0.89 0.605-1.429 0.605s-1.054-0.218-1.429-0.605c-0.375 0.387-0.89 0.605-1.429 0.605s-1.054-0.218-1.429-0.605c-0.375 0.387-0.89 0.605-1.429 0.605s-1.054-0.218-1.429-0.605c-0.375 0.387-0.89 0.605-1.429 0.605s-1.054-0.218-1.429-0.605c-0.375 0.387-0.89 0.605-1.429 0.605s-1.054-0.218-1.429-0.605c-0.593 0.617-1.517 0.781-2.286 0.404v1.343h24.571v-1.343c-0.769 0.376-1.693 0.213-2.286-0.404z"></path>
<path fill="#fff" d="M2.286 21.514c-0.769 0.376-1.693 0.213-2.286-0.404v1.748h2.286v-1.343z"></path>
<path fill="#fff" d="M11.429 30.857h-4v1.143h17.143v-1.143h-4z"></path>
<path fill="#fff" d="M5.143 4.571h1.143v-1.143h-2.857v19.429h2.857v-1.143h-1.143c-0.316 0-0.571-0.256-0.571-0.571s0.256-0.571 0.571-0.571h1.143v-1.143h-1.143c-0.316 0-0.571-0.256-0.571-0.571s0.256-0.571 0.571-0.571h1.143v-1.143h-1.143c-0.316 0-0.571-0.256-0.571-0.571s0.256-0.571 0.571-0.571h1.143v-1.143h-1.143c-0.316 0-0.571-0.256-0.571-0.571s0.256-0.571 0.571-0.571h1.143v-1.143h-1.143c-0.316 0-0.571-0.256-0.571-0.571s0.256-0.571 0.571-0.571h1.143v-1.143h-1.143c-0.316 0-0.571-0.256-0.571-0.571s0.256-0.571 0.571-0.571h1.143v-1.143h-1.143c-0.316 0-0.571-0.256-0.571-0.571s0.256-0.571 0.571-0.571h1.143v-1.143h-1.143c-0.316 0-0.571-0.256-0.571-0.571s0.256-0.571 0.571-0.571z"></path>
<path fill="#fff" d="M26.286 19.714v-0.286h-1.714v0.286c0 0.473 0.384 0.857 0.857 0.857s0.857-0.384 0.857-0.857z"></path>
<path fill="#fff" d="M0 24v1.714c0.001 0.946 0.768 1.713 1.714 1.714h28.571c0.946-0.001 1.713-0.768 1.714-1.714v-1.714h-32z"></path>
<path fill="#fff" d="M30.286 19.714c0 0.473 0.384 0.857 0.857 0.857s0.857-0.384 0.857-0.857v-0.286h-1.714v0.286z"></path>
<path fill="#fff" d="M18.424 11.388l5.657-5.657 1.616 1.616-5.657 5.657-1.616-1.616z"></path>
<path fill="#fff" d="M26.62 8.041l-3.184 3.184c0.041 0.439 0.408 0.774 0.849 0.776h4c0.441 0 0.81-0.334 0.853-0.772s-0.253-0.838-0.685-0.925c-0.295-0.059-0.494-0.337-0.454-0.635-0.024-0.798-0.596-1.473-1.379-1.627z"></path>
<path fill="#fff" d="M17.026 14.403l1.998-0.799-1.199-1.199z"></path>
<path fill="#fff" d="M25.698 4.115l1.616 1.616-0.808 0.808-1.616-1.616 0.808-0.808z"></path>
<path fill="#fff" d="M30.286 0h-28.571c-0.946 0.001-1.713 0.768-1.714 1.714v16.571h2.286v-14.857c0.001-0.631 0.512-1.142 1.143-1.143h2.857c0.631 0.001 1.142 0.512 1.143 1.143v14.857h24.571v-16.571c-0.001-0.946-0.768-1.713-1.714-1.714zM14.857 13.143c-0.001 0.631-0.512 1.142-1.143 1.143h-1.143c-0.201-0.001-0.399-0.056-0.571-0.159-0.173 0.103-0.37 0.158-0.571 0.159h-1.143c-0.631-0.001-1.142-0.512-1.143-1.143v-1.143c0.001-0.631 0.512-1.142 1.143-1.143h1.143c0.201 0.001 0.399 0.056 0.571 0.159 0.173-0.103 0.37-0.158 0.571-0.159h1.143c0.631 0.001 1.142 0.512 1.143 1.143v1.143zM11.143 8.571c-0.941 0-1.755-0.656-1.954-1.575s0.268-1.854 1.124-2.244c0.195-1.414 1.403-2.466 2.83-2.466s2.635 1.053 2.83 2.466c0.856 0.391 1.324 1.325 1.124 2.244s-1.014 1.575-1.954 1.575h-4zM29.117 9.325c0.856 0.391 1.323 1.325 1.123 2.244s-1.014 1.575-1.954 1.574h-4c-0.723-0.003-1.388-0.397-1.738-1.030l-2.104 2.104c-0.063 0.042-0.126 0.084-0.19 0.125l-0.001 0.001-4.041 1.616c-0.212 0.085-0.454 0.035-0.616-0.127s-0.211-0.404-0.127-0.616l1.617-4.042c0.041-0.064 0.083-0.127 0.125-0.19l0-0.001 9.294-9.294c0.577-0.578 1.419-0.803 2.208-0.592s1.405 0.828 1.616 1.616-0.014 1.631-0.592 2.208l-2.222 2.222c0.865 0.412 1.466 1.231 1.6 2.18z"></path>
<path fill="#fff" d="M28.419 2.201c-0.395-0.106-0.817 0.008-1.105 0.298l-0.808 0.808 1.617 1.617 0.808-0.808c0.29-0.289 0.403-0.71 0.298-1.105s-0.414-0.704-0.809-0.809z"></path>
<path fill="#fff" d="M10.286 12h1.143v1.143h-1.143v-1.143z"></path>
<path fill="#fff" d="M12.571 12h1.143v1.143h-1.143v-1.143z"></path>
<path fill="#fff" d="M29.143 19.714v-0.286h-1.714v0.286c0 0.473 0.384 0.857 0.857 0.857s0.857-0.384 0.857-0.857z"></path>
<path fill="#fff" d="M15.314 5.732c-0.267-0.053-0.459-0.288-0.459-0.56 0-0.015 0.001-0.035 0.003-0.054-0.014-0.937-0.777-1.689-1.715-1.689s-1.7 0.753-1.714 1.69c0.002 0.019 0.003 0.038 0.003 0.053 0 0.272-0.192 0.507-0.459 0.56-0.431 0.088-0.726 0.488-0.682 0.926s0.413 0.771 0.853 0.771h4c0.44 0 0.809-0.333 0.853-0.771s-0.251-0.838-0.682-0.926z"></path>
</svg>
