<!-- Generated by IcoMoon.io -->
<svg version="1.1" xmlns="http://www.w3.org/2000/svg" width="32" height="32" viewBox="0 0 32 32">
<title>creative</title>
<path fill="#fff" d="M16 6.309c-4.619 0.003-8.363 3.747-8.366 8.366 0.041 3.015 1.508 5.833 3.955 7.595v6.042c0.002 0.069 0.016 0.137 0.041 0.202v0.047c0.010 0.024 0.022 0.048 0.036 0.071l2.087 3.107c0.11 0.163 0.295 0.261 0.492 0.261h3.451c0.197 0 0.382-0.097 0.492-0.261l2.087-3.107c0.013-0.023 0.025-0.047 0.036-0.071v-0.047c0.026-0.064 0.040-0.133 0.041-0.202v-6.042c2.447-1.763 3.913-4.58 3.955-7.595-0.003-4.596-3.711-8.33-8.307-8.366zM17.411 30.832h-2.822l-1.293-1.921h5.402l-1.287 1.921zM12.78 27.725v-1.571h6.439l0.006 1.571h-6.445zM19.492 21.458v0.018c-0.167 0.11-0.268 0.298-0.267 0.498v3.012h-6.445v-3.048c0.001-0.2-0.099-0.388-0.267-0.498-2.27-1.517-3.649-4.053-3.688-6.783 0.114-3.964 3.42-7.085 7.384-6.971 3.804 0.109 6.862 3.167 6.971 6.971-0.033 2.736-1.413 5.28-3.688 6.801z"></path>
<path fill="#fff" d="M16.237 8.995c-0.327 0-0.593 0.265-0.593 0.593s0.265 0.593 0.593 0.593c2.464 0.003 4.461 2 4.465 4.465 0 0.327 0.265 0.593 0.593 0.593s0.593-0.265 0.593-0.593c-0.003-3.119-2.531-5.647-5.651-5.651z"></path>
<path fill="#fff" d="M6.039 14.052h-4.269c-0.327 0-0.593 0.265-0.593 0.593s0.265 0.593 0.593 0.593h4.269c0.327 0 0.593-0.265 0.593-0.593 0 0 0 0 0 0 0-0.327-0.265-0.593-0.593-0.593z"></path>
<path fill="#fff" d="M30.23 14.052h-4.269c-0.327 0-0.593 0.265-0.593 0.593s0.265 0.593 0.593 0.593h4.269c0.327 0 0.593-0.265 0.593-0.593s-0.265-0.593-0.593-0.593z"></path>
<path fill="#fff" d="M9.436 21.28c-0.213-0.249-0.587-0.278-0.836-0.065-0.023 0.020-0.045 0.041-0.065 0.065v-0.012l-3.030 3.042c-0.249 0.213-0.278 0.587-0.065 0.836s0.587 0.278 0.836 0.065c0.023-0.020 0.045-0.041 0.065-0.065l3.030-3.030c0.249-0.213 0.278-0.587 0.065-0.836z"></path>
<path fill="#fff" d="M26.43 4.15c-0.222-0.19-0.549-0.19-0.771 0l-3.030 3.030c-0.233 0.231-0.234 0.606-0.003 0.839 0.112 0.113 0.265 0.176 0.424 0.175l-0.006-0.006c0.158 0.001 0.309-0.061 0.421-0.172l3.030-3.030c0.213-0.249 0.184-0.623-0.065-0.836z"></path>
<path fill="#fff" d="M26.612 24.429c-0.033-0.045-0.073-0.085-0.118-0.119l-3.030-3.042c-0.213-0.249-0.587-0.278-0.836-0.065s-0.278 0.587-0.065 0.836c0.020 0.023 0.041 0.045 0.065 0.065l3.030 3.030c0.195 0.263 0.566 0.319 0.829 0.124s0.319-0.566 0.124-0.829z"></path>
<path fill="#fff" d="M9.371 7.18l-3.030-3.030c-0.249-0.213-0.623-0.184-0.836 0.065-0.19 0.222-0.19 0.549 0 0.771l3.030 3.030c0.249 0.213 0.623 0.184 0.836-0.065 0.19-0.222 0.19-0.549 0-0.771z"></path>
<path fill="#fff" d="M16 0c-0.327 0-0.593 0.265-0.593 0.593v4.287c-0.010 0.327 0.248 0.601 0.575 0.61 0.006 0 0.012 0 0.018 0 0.327 0 0.593-0.265 0.593-0.593v-4.305c0-0.327-0.265-0.593-0.593-0.593z"></path>
</svg>
