<!-- Generated by IcoMoon.io -->
<svg version="1.1" xmlns="http://www.w3.org/2000/svg" width="32" height="32" viewBox="0 0 32 32">
<title>customer</title>
<path fill="#fff" d="M30.999 15.787c-1.070-0.882-2.761-0.957-3.871 0.234l-2.755 2.958c-0.356-1.145-1.426-1.979-2.686-1.979h-4.917c-0.373 0-0.498-0.142-1.146-0.642-2.471-2.154-6.183-2.147-8.646 0.021l-1.807 1.591c-0.812-0.43-1.761-0.441-2.578-0.032l-2.073 1.036c-0.463 0.232-0.651 0.795-0.419 1.258l5.625 11.249c0.232 0.463 0.795 0.651 1.258 0.419l2.073-1.037c1.022-0.511 1.591-1.553 1.554-2.614h11.078c2.054 0 4.017-0.981 5.25-2.625l4.5-6.001c0.873-1.163 0.735-2.869-0.438-3.837zM8.216 29.187l-1.234 0.617-4.787-9.572 1.235-0.617c0.463-0.231 1.026-0.044 1.257 0.419l3.948 7.896c0.231 0.463 0.044 1.026-0.419 1.257zM29.937 18.498l-4.5 6.001c-0.881 1.174-2.282 1.875-3.75 1.875h-11.732l-3.513-7.026 1.774-1.562c1.765-1.553 4.428-1.553 6.193 0 1.040 0.916 1.687 1.089 2.361 1.089h4.917c0.517 0 0.937 0.421 0.937 0.937s-0.421 0.937-0.937 0.937h-4.788c-0.517 0-0.937 0.42-0.937 0.937s0.42 0.937 0.937 0.937h5.416c0.778 0 1.528-0.326 2.058-0.896l4.127-4.43c0.378-0.405 0.956-0.371 1.311-0.061 0.371 0.325 0.411 0.881 0.126 1.261z"></path>
<path fill="#fff" d="M19.712 6.398c0.642-0.673 1.037-1.583 1.037-2.585 0-2.064-1.667-3.812-3.75-3.812-2.067 0-3.812 1.746-3.812 3.812 0 0.971 0.381 1.888 1.072 2.592-1.714 0.961-2.947 2.806-2.947 4.97v0.937c0 0.517 0.42 0.937 0.937 0.937h9.437c0.517 0 0.937-0.42 0.937-0.937v-0.937c-0-2.121-1.167-3.995-2.912-4.977zM16.999 1.876c1.016 0 1.875 0.887 1.875 1.937 0 1.034-0.841 1.875-1.875 1.875-1.050 0-1.937-0.859-1.937-1.875 0-1.032 0.906-1.937 1.937-1.937zM13.187 11.375c0-2.067 1.745-3.812 3.812-3.812s3.75 1.71 3.75 3.812h-7.562z"></path>
</svg>
