<!-- Generated by IcoMoon.io -->
<svg version="1.1" xmlns="http://www.w3.org/2000/svg" width="32" height="32" viewBox="0 0 32 32">
<title>peoplelink</title>
<path fill="#fff" d="M16 9.555c-3.54 0-5.736 1.811-5.736 4.747 0 0.332 0.272 0.604 0.604 0.604h10.264c0.332 0 0.604-0.272 0.604-0.604 0-2.936-2.196-4.747-5.736-4.747zM11.517 13.691c0.4-2.709 3.494-2.936 4.483-2.936s4.091 0.226 4.483 2.936h-8.966z"></path>
<path fill="#fff" d="M16 3.215c-1.585 0-2.868 1.283-2.868 2.868s1.283 2.868 2.868 2.868c1.585 0 2.868-1.283 2.868-2.868s-1.283-2.868-2.868-2.868zM16 7.743c-0.913 0-1.66-0.74-1.66-1.66s0.747-1.66 1.66-1.66 1.66 0.74 1.66 1.66-0.747 1.66-1.66 1.66z"></path>
<path fill="#fff" d="M5.736 23.442c-3.54 0-5.736 1.811-5.736 4.747 0 0.332 0.272 0.604 0.604 0.604h10.264c0.332 0 0.604-0.272 0.604-0.604 0-2.936-2.196-4.747-5.736-4.747zM1.253 27.577c0.4-2.709 3.487-2.936 4.483-2.936s4.091 0.226 4.483 2.936h-8.966z"></path>
<path fill="#fff" d="M5.736 17.102c-1.585 0-2.868 1.283-2.868 2.868s1.283 2.868 2.868 2.868c1.585 0 2.868-1.283 2.868-2.868s-1.283-2.868-2.868-2.868zM5.736 21.63c-0.921 0-1.66-0.747-1.66-1.66s0.74-1.66 1.66-1.66 1.66 0.747 1.66 1.66-0.74 1.66-1.66 1.66z"></path>
<path fill="#fff" d="M26.264 23.442c-3.54 0-5.736 1.811-5.736 4.747 0 0.332 0.272 0.604 0.604 0.604h10.264c0.332 0 0.604-0.272 0.604-0.604 0-2.936-2.196-4.747-5.736-4.747zM21.781 27.577c0.4-2.709 3.487-2.936 4.483-2.936s4.091 0.226 4.483 2.936h-8.966z"></path>
<path fill="#fff" d="M26.264 17.102c-1.585 0-2.868 1.283-2.868 2.868s1.283 2.868 2.868 2.868c1.585 0 2.868-1.283 2.868-2.868s-1.283-2.868-2.868-2.868zM26.264 21.63c-0.913 0-1.66-0.747-1.66-1.66s0.747-1.66 1.66-1.66 1.66 0.747 1.66 1.66-0.747 1.66-1.66 1.66z"></path>
<path fill="#fff" d="M19.125 22.392l-2.521-2.528v-3.562c0-0.332-0.272-0.604-0.604-0.604s-0.604 0.272-0.604 0.604v3.562l-2.521 2.521c-0.242 0.234-0.242 0.619-0.008 0.86s0.619 0.241 0.86 0.008l2.272-2.279 2.272 2.279c0.257 0.219 0.634 0.189 0.853-0.068 0.189-0.234 0.189-0.566 0-0.792z"></path>
</svg>
