<?xml version="1.0" standalone="no"?>
<!DOCTYPE svg PUBLIC "-//W3C//DTD SVG 1.1//EN" "http://www.w3.org/Graphics/SVG/1.1/DTD/svg11.dtd" >
<svg xmlns="http://www.w3.org/2000/svg">
<metadata>Generated by IcoMoon</metadata>
<defs>
<font id="arinella" horiz-adv-x="1024">
<font-face units-per-em="1024" ascent="960" descent="-64" />
<missing-glyph horiz-adv-x="1024" />
<glyph unicode="&#x20;" horiz-adv-x="512" d="" />
<glyph unicode="&#xe900;" d="M1024 426.667c0-282.77-229.23-512-512-512s-512 229.23-512 512c0 282.77 229.23 512 512 512s512-229.23 512-512z" />
<glyph unicode="&#xe901;" d="M450.56 242.347c-4.096 0-8.192 2.048-12.288 4.096l-204.8 163.84c-8.192 6.144-10.24 20.48-4.096 28.672s20.48 10.24 28.672 4.096l190.464-151.552 315.392 354.304c8.192 8.192 20.48 10.24 28.672 2.048s10.24-20.48 2.048-28.672l-327.68-368.64c-4.096-6.144-10.24-8.192-16.384-8.192z" />
<glyph unicode="&#xe902;" d="M267.972 896.458h712.48c14.619 0 26.471-11.852 26.471-26.471v-527.699c0-14.619-11.852-26.471-26.471-26.471h-712.48c-14.619 0-26.471 11.852-26.471 26.471v527.699c0 14.619 11.852 26.471 26.471 26.471z" />
<glyph unicode="&#xe903;" d="M952.614 869.987v-527.699c0.022-7.027-2.758-13.773-7.727-18.742s-11.716-7.751-18.742-7.727h-658.173c-1.607 0.002-3.21 0.174-4.781 0.512-1.523 0.216-3.014 0.618-4.441 1.195-10.333 3.872-17.199 13.727-17.249 24.762v527.699c-0.064 6.44 2.315 12.664 6.66 17.419 2.556 2.978 5.774 5.315 9.392 6.83 1.461 0.714 3.012 1.233 4.611 1.537 1.895 0.49 3.848 0.718 5.806 0.682h658.173c7.027 0.022 13.773-2.758 18.742-7.727 4.971-4.969 7.753-11.716 7.729-18.742z" />
<glyph unicode="&#xe904;" d="M952.614 846.762v23.225c0.022 7.027-2.758 13.773-7.727 18.742s-11.716 7.751-18.742 7.729h54.307c7.613 0.038 14.856-3.272 19.811-9.052l-47.649-40.644z" />
<glyph unicode="&#xe905;" d="M952.614 869.987v-23.225l-302.957-258.898c-14.737-12.294-36.155-12.294-50.891 0l-55.502 47.477-295.104 252.066c2.556 2.978 5.774 5.315 9.392 6.83 1.461 0.714 3.012 1.233 4.611 1.537 1.895 0.49 3.848 0.718 5.806 0.682h658.173c7.027 0.022 13.773-2.758 18.742-7.727 4.971-4.969 7.753-11.716 7.729-18.742z" />
<glyph unicode="&#xe906;" d="M997.529 322.137c-4.759-4.073-10.815-6.314-17.077-6.318h-54.307c7.027-0.022 13.773 2.76 18.742 7.729s7.751 11.716 7.727 18.742v28.008l44.915-48.161z" />
<glyph unicode="&#xe907;" d="M952.614 370.296v-28.008c0.022-7.027-2.758-13.773-7.727-18.742s-11.716-7.751-18.742-7.727h-658.173c-1.607 0.002-3.21 0.174-4.781 0.512-1.523 0.216-3.014 0.618-4.441 1.195-2.872 1.059-5.532 2.62-7.855 4.611l292.37 313.203 55.502-47.477c14.737-12.294 36.155-12.294 50.891 0l55.502 47.477 247.455-265.044z" />
<glyph unicode="&#xe908;" d="M781.668 69.559l-40.474-67.285c-7.861-13.285-19.276-24.109-32.959-31.252-4.851-2.674-10.012-4.739-15.37-6.148-67.285-18.444-215.52-22.2-453.069 215.348s-233.794 385.784-215.35 453.069c1.381 5.285 3.386 10.389 5.978 15.2 7.201 13.743 18.080 25.214 31.422 33.131l67.285 40.474c15.396 9.254 35.349 4.737 45.255-10.247l107.419-161.214c9.854-14.573 6.716-34.29-7.173-45.085l-23.909-18.614-36.545-28.348c-5.486-4.303-9.486-10.215-11.441-16.907-2.744-8.582-1.817-17.914 2.562-25.787 17.761-31.764 34.496-69.335 117.666-152.504s120.74-99.904 152.504-117.666c14.515-7.693 32.451-3.963 42.693 8.88l28.348 36.545 18.614 23.909c10.795 13.889 30.512 17.027 45.085 7.173l75.995-50.55 85.217-56.869c14.984-9.908 19.503-29.861 10.249-45.255z" />
<glyph unicode="&#xe909;" d="M746.145 34.036l-37.912-63.016c-4.851-2.674-10.012-4.739-15.37-6.148-67.285-18.444-215.52-22.2-453.069 215.348s-233.792 385.786-215.348 453.071c1.381 5.285 3.386 10.389 5.978 15.2l63.187 38.082c15.396 9.254 35.349 4.737 45.255-10.247l107.419-161.041c5.638-8.313 7.267-18.71 4.441-28.348-2.087-6.672-6.134-12.564-11.613-16.907l-36.375-28.348-24.079-18.614c-13.064-10.106-16.831-28.216-8.88-42.693 17.761-31.764 34.496-69.335 117.666-152.504s120.74-99.904 152.504-117.666c14.477-7.949 32.587-4.183 42.693 8.88l18.614 24.079 28.348 36.375c4.343 5.48 10.235 9.526 16.907 11.613 9.638 2.826 20.035 1.197 28.348-4.441l161.041-107.419c14.984-9.908 19.501-29.861 10.247-45.257z" />
<glyph unicode="&#xe90a;" d="M30.422 648.491c-2.59-4.811-4.597-9.912-5.978-15.2-18.442-67.285-22.2-215.52 215.35-453.069 203.907-203.907 341.894-229.984 419.53-221.616-81.614 8.145-203.429 56.748-368.297 221.616-237.551 237.549-233.792 385.784-215.348 453.069 1.381 5.285 3.386 10.389 5.978 15.2 7.201 13.743 18.080 25.214 31.422 33.131l57.689 34.702c-10.795 11.473-28.126 13.875-41.635 5.772l-67.285-40.474c-13.347-7.919-24.226-19.388-31.426-33.131z" />
<glyph unicode="&#xe90b;" d="M292.734 537.827v332.159c0.028 3.026 0.576 6.024 1.623 8.864 0.102 0.29 0.154 0.58 0.256 0.871 3.961 10.119 13.727 16.765 24.592 16.737h-51.233c-10.865 0.028-20.631-6.618-24.592-16.737-0.102-0.29-0.154-0.58-0.256-0.871-1.075-2.834-1.653-5.832-1.707-8.864v-255.31l42.523-63.785 8.794-13.064z" />
<glyph unicode="&#xe90c;" d="M227.72 168.164c-53.745 52.634-102.046 110.551-144.169 172.877-29.211 42.848-52.21 89.616-68.31 138.909-17.407 50.835-19.961 105.58-7.361 157.815l32.943-9.034c-10.849-45.978-8.385-94.092 7.105-138.721 15.132-46.212 36.722-90.050 64.127-130.218 40.848-60.383 87.678-116.493 139.78-167.48l-24.115-24.15z" />
<glyph unicode="&#xe90d;" d="M146.602 264.482h3.262c1.169 0.082 2.319 0.334 3.416 0.75 1.055 0.232 2.069 0.622 3.006 1.161 0.983 0.58 1.929 1.219 2.836 1.913 3.436 2.96 5.662 7.083 6.25 11.579 0.2 2.231-0.032 4.481-0.682 6.626-1.931 6.51-7.537 11.257-14.277 12.092-2.237 0.18-4.489-0.050-6.642-0.682-6.684-1.757-11.609-7.429-12.416-14.293-0.895-9.49 5.912-17.976 15.37-19.16l-0.122 0.014z" />
<glyph unicode="&#xe90e;" d="M980.452 913.227h-715.554c-24.039-0.028-43.52-19.509-43.548-43.548v-197.383l-32.721 49.098c-14.978 22.593-45.099 29.371-68.31 15.37l-67.321-40.472c-22.038-12.944-38.209-33.92-45.119-58.526-12.594-52.226-10.036-106.959 7.377-157.779 16.102-49.294 39.099-96.062 68.31-138.909 3.126-4.935 6.234-9.87 9.716-14.499 2.63-3.74 6.636-6.282 11.139-7.067s9.134 0.252 12.872 2.882c7.559 5.427 9.382 15.906 4.099 23.567-3.416 4.457-6.318 9.17-9.274 13.867-27.428 40.152-49.040 83.98-64.195 130.184-15.474 44.615-17.934 92.712-7.087 138.671 4.589 16.112 15.23 29.825 29.697 38.271l67.389 40.44c7.551 4.521 17.319 2.319 22.2-5.003l107.537-161.146c4.767-7.209 3.2-16.871-3.604-22.2l-60.353-46.946c-19.819-15.204-25.476-42.649-13.287-64.451l4.781-8.676c17.077-31.32 38.305-70.291 115.684-147.653s116.333-98.605 147.637-115.684l8.676-4.765c21.808-12.194 49.26-6.536 64.467 13.287l46.93 60.335c5.335 6.796 14.99 8.363 22.2 3.604l161.196-107.453c7.323-4.881 9.524-14.651 5.003-22.2l-40.422-67.389c-8.441-14.475-22.156-25.122-38.271-29.715-80.726-22.2-222.009-3.416-436.436 211.028-15.472 16.326-31.44 32.243-46.502 48.909-6.272 6.892-16.911 7.485-23.909 1.333-7.071-6.338-7.673-17.203-1.349-24.284 15.37-17.077 31.764-33.387 47.613-50.106 179.776-179.725 313.854-228.107 406.259-228.107 21.394-0.098 42.705 2.682 63.359 8.265 24.602 6.9 45.579 23.051 58.542 45.067l40.422 67.389c13.945 23.193 7.173 53.252-15.37 68.226l-161.196 107.453c-22.112 14.625-51.751 9.816-68.106-11.049l-46.93-60.335c-4.905-6.456-13.803-8.337-20.903-4.423l-8.932 4.919c-29.391 16.018-65.97 35.965-139.848 109.843-7.993 7.993-15.234 15.472-22.030 22.629h667.463c23.979-0.018 43.454 19.364 43.548 43.344v528.241c-0.020 24.039-19.501 43.52-43.54 43.548zM989.844 341.433c-0.056-5.137-4.257-9.26-9.392-9.222h-698.271c-22.18 25.364-41.307 53.242-56.989 83.065l-4.919 8.966c-3.923 7.085-2.045 15.974 4.407 20.869l60.353 46.946c20.873 16.351 25.683 45.994 11.049 68.106l-40.576 60.899v248.616c-0.028 2.5 0.953 4.905 2.72 6.672s4.173 2.748 6.672 2.72h715.554c2.5 0.028 4.905-0.953 6.672-2.72s2.748-4.173 2.72-6.672v-528.245z" />
<glyph unicode="&#xe90f;" d="M945.546 830.88c-5.702 7.501-16.399 8.968-23.909 3.278l-285.419-216.459c-8.075-5.868-19.010-5.868-27.085 0l-285.315 216.459c-7.517 5.702-18.234 4.229-23.933-3.288-5.702-7.517-4.229-18.234 3.288-23.933l285.349-216.441c20.301-14.998 48.009-14.998 68.31 0l285.435 216.441c3.612 2.738 5.988 6.8 6.602 11.291 0.616 4.491-0.58 9.042-3.322 12.652z" />
<glyph unicode="&#xe910;" d="M476.934 589.060l-174.942-187.342c-6.432-6.898-6.054-17.707 0.845-24.14s17.707-6.054 24.14 0.845l174.942 187.426c5.78 6.972 5.109 17.245-1.525 23.411-6.636 6.166-16.931 6.076-23.459-0.2z" />
<glyph unicode="&#xe911;" d="M769.542 589.060c-6.432 6.898-17.239 7.279-24.14 0.845-6.898-6.432-7.279-17.239-0.845-24.14l174.892-187.342c6.432-6.898 17.239-7.279 24.14-0.845 6.898 6.432 7.279 17.239 0.845 24.14l-174.892 187.342z" />
<glyph unicode="&#xe912;" glyph-name="continue" d="M689.982 77.53c-14.436-14.436-37.164-14.436-51.6 0-13.949 13.949-13.949 37.164 0 51.080l261.641 261.641h-863.38c-20.126 0-36.643 15.997-36.643 36.123s16.517 36.643 36.643 36.643h863.38l-261.641 261.153c-13.949 14.436-13.949 37.684 0 51.6 14.436 14.436 37.164 14.436 51.6 0l323.581-323.581c13.949-13.949 13.949-37.164 0-51.080l-323.581-323.581z" />
<glyph unicode="&#xe913;" d="M988.69 522.764l-389.014 380.292c-48.569 47.492-126.782 47.492-175.351 0l-389.014-380.292v-608.097h953.379v608.097z" />
<glyph unicode="&#xe914;" d="M648.068 580.391l-123.569 123.569c-1.624 1.642-3.584 2.931-5.756 3.831-4.308 1.783-9.163 1.783-13.489 0-2.172-0.9-4.131-2.207-5.756-3.831l-123.569-123.569c-6.903-6.903-6.903-18.061 0-24.964 3.443-3.443 7.962-5.173 12.482-5.173s9.039 1.73 12.482 5.173l93.449 93.449v-292.829c0-9.763 7.892-17.655 17.655-17.655s17.655 7.892 17.655 17.655v292.829l93.449-93.449c3.443-3.443 7.962-5.173 12.482-5.173s9.039 1.73 12.482 5.173c6.903 6.903 6.903 18.061 0 24.964z" />
<glyph unicode="&#xe915;" d="M988.69-85.333l-398.195 308.383c-48.658 33.457-113.081 33.633-161.933 0.477-136.828-92.884-393.251-308.86-393.251-308.86h953.379z" />
<glyph unicode="&#xe916;" d="M444.169 232.46h-2.79l-406.069 282.483v-600.276c0 0 256.424 215.976 393.234 308.86 5.032 3.407 10.311 6.232 15.625 8.934z" />
<glyph unicode="&#xe917;" d="M582.621 232.46h-8.351c5.526-2.825 10.999-5.826 16.207-9.41l398.212-308.383v600.276l-406.069-282.483z" />
<glyph unicode="&#xe918;" d="M1024 426.667c0-282.77-229.23-512-512-512s-512 229.23-512 512c0 282.77 229.23 512 512 512s512-229.23 512-512z" />
<glyph unicode="&#xe919;" d="M327.68 221.867c-6.144 0-10.24 2.048-14.336 6.144-8.192 8.192-8.192 20.48 0 28.672l368.64 368.64c8.192 8.192 20.48 8.192 28.672 0s8.192-20.48 0-28.672l-368.64-368.64c-4.096-4.096-8.192-6.144-14.336-6.144z" />
<glyph unicode="&#xe91a;" d="M696.32 221.867c-6.144 0-10.24 2.048-14.336 6.144l-368.64 368.64c-8.192 8.192-8.192 20.48 0 28.672s20.48 8.192 28.672 0l368.64-368.64c8.192-8.192 8.192-20.48 0-28.672-4.096-4.096-8.192-6.144-14.336-6.144z" />
<glyph unicode="&#xe91b;" glyph-name="next" d="M320.695-24.211c-6.35-6.35-14.288-9.526-23.020-9.526s-16.67 3.175-23.020 9.526c-12.701 12.701-12.701 33.34 0 46.040l404.837 404.837-404.837 404.837c-12.701 12.701-12.701 33.34 0 46.040s33.34 12.701 46.040 0l427.857-427.857c12.701-12.701 12.701-33.34 0-46.040l-427.857-427.857z" />
<glyph unicode="&#xe91c;" glyph-name="prev" d="M703.305-24.211c6.35-6.35 14.288-9.526 23.020-9.526s16.67 3.175 23.020 9.526c12.701 12.701 12.701 33.34 0 46.040l-404.837 404.837 404.837 404.837c12.701 12.701 12.701 33.34 0 46.040s-33.34 12.701-46.040 0l-428.651-427.857c-12.701-12.701-12.701-33.34 0-46.040l428.651-427.857z" />
<glyph unicode="&#xe91d;" glyph-name="alert-circle" d="M512 896c-260.267 0-469.333-209.067-469.333-469.333s209.067-469.333 469.333-469.333 469.333 209.067 469.333 469.333-209.067 469.333-469.333 469.333zM512 42.667c-213.333 0-384 170.667-384 384s170.667 384 384 384c213.333 0 384-170.667 384-384s-170.667-384-384-384zM512 640c-25.6 0-42.667-17.067-42.667-42.667v-170.667c0-25.6 17.067-42.667 42.667-42.667s42.667 17.067 42.667 42.667v170.667c0 25.6-17.067 42.667-42.667 42.667zM482.133 285.867c-8.533-8.533-12.8-17.067-12.8-29.867s4.267-21.333 12.8-29.867c8.533-8.533 17.067-12.8 29.867-12.8s21.333 4.267 29.867 12.8c8.533 8.533 12.8 21.333 12.8 29.867s-4.267 21.333-12.8 29.867c-17.067 17.067-42.667 17.067-59.733 0z" />
<glyph unicode="&#xe91e;" glyph-name="alert-octagon" d="M968.533 631.467l-251.733 251.733c-4.267 8.533-17.067 12.8-29.867 12.8h-349.867c-12.8 0-25.6-4.267-29.867-12.8l-251.733-251.733c-8.533-4.267-12.8-17.067-12.8-29.867v-354.133c0-12.8 4.267-21.333 12.8-29.867l251.733-251.733c4.267-4.267 17.067-8.533 29.867-8.533h354.133c12.8 0 21.333 4.267 29.867 12.8l251.733 251.733c8.533 8.533 12.8 17.067 12.8 29.867v349.867c-4.267 12.8-8.533 25.6-17.067 29.867zM896 268.8l-226.133-226.133h-315.733l-226.133 226.133v315.733l226.133 226.133h320l221.867-226.133v-315.733zM512 640c-25.6 0-42.667-17.067-42.667-42.667v-170.667c0-25.6 17.067-42.667 42.667-42.667s42.667 17.067 42.667 42.667v170.667c0 25.6-17.067 42.667-42.667 42.667zM482.133 285.867c-8.533-8.533-12.8-17.067-12.8-29.867s4.267-21.333 12.8-29.867c8.533-8.533 17.067-12.8 29.867-12.8s21.333 4.267 29.867 12.8c8.533 8.533 12.8 21.333 12.8 29.867s-4.267 21.333-12.8 29.867c-17.067 17.067-42.667 17.067-59.733 0z" />
<glyph unicode="&#xe91f;" glyph-name="alert-triangle" d="M981.333 192l-358.4 605.867c-17.067 29.867-46.933 51.2-81.067 59.733s-68.267 4.267-98.133-12.8c-17.067-8.533-34.133-25.6-42.667-42.667 0 0 0 0 0 0l-358.4-610.133c-34.133-59.733-12.8-140.8 46.933-174.933 17.067-12.8 38.4-17.067 59.733-17.067h725.333c34.133 0 68.267 12.8 89.6 38.4 25.6 25.6 38.4 55.467 38.4 89.6-4.267 21.333-8.533 46.933-21.333 64zM904.533 98.134c-8.533-8.533-21.333-12.8-29.867-12.8h-725.333c-8.533 0-12.8 0-21.333 4.267-21.333 12.8-25.6 38.4-17.067 59.733l362.667 601.6c4.267 4.267 8.533 12.8 12.8 12.8 21.333 12.8 46.933 4.267 59.733-12.8l362.667-601.6c4.267-4.267 4.267-12.8 4.267-21.333 4.267-12.8-4.267-21.333-8.533-29.867zM512 597.334c-25.6 0-42.667-17.067-42.667-42.667v-170.667c0-25.6 17.067-42.667 42.667-42.667s42.667 17.067 42.667 42.667v170.667c0 25.6-17.067 42.667-42.667 42.667zM482.133 243.2c-8.533-8.533-12.8-17.067-12.8-29.867s4.267-21.333 12.8-29.867c8.533-8.533 17.067-12.8 29.867-12.8s21.333 4.267 29.867 12.8c8.533 8.533 12.8 21.333 12.8 29.867s-4.267 21.333-12.8 29.867c-17.067 17.067-42.667 17.067-59.733 0z" />
<glyph unicode="&#xe920;" glyph-name="align-center" d="M256 554.667c-25.6 0-42.667-17.067-42.667-42.667s17.067-42.667 42.667-42.667h512c25.6 0 42.667 17.067 42.667 42.667s-17.067 42.667-42.667 42.667h-512zM128 640h768c25.6 0 42.667 17.067 42.667 42.667s-17.067 42.667-42.667 42.667h-768c-25.6 0-42.667-17.067-42.667-42.667s17.067-42.667 42.667-42.667zM896 384h-768c-25.6 0-42.667-17.067-42.667-42.667s17.067-42.667 42.667-42.667h768c25.6 0 42.667 17.067 42.667 42.667s-17.067 42.667-42.667 42.667zM768 213.334h-512c-25.6 0-42.667-17.067-42.667-42.667s17.067-42.667 42.667-42.667h512c25.6 0 42.667 17.067 42.667 42.667s-17.067 42.667-42.667 42.667z" />
<glyph unicode="&#xe921;" glyph-name="aperture" d="M891.733 153.6c55.467 76.8 89.6 170.667 89.6 273.067 0 64-12.8 128-38.4 183.467 0 0 0 4.267 0 4.267-64 149.333-204.8 256-375.467 277.333 0 0-4.267 0-4.267 0-17.067 4.267-34.133 4.267-51.2 4.267-153.6 0-290.133-72.533-375.467-187.733 0-4.267-4.267-4.267-4.267-8.533-55.467-76.8-89.6-170.667-89.6-273.067 0-64 12.8-128 38.4-187.733 0 0 0-4.267 0-4.267 64-145.067 204.8-256 371.2-277.333 0 0 4.267 0 4.267 0 17.067 0 34.133-4.267 51.2-4.267 153.6 0 290.133 72.533 375.467 187.733 4.267 4.267 8.533 8.533 8.533 12.8zM584.533 298.667h-149.333l-72.533 128 72.533 128h149.333l72.533-128-72.533-128zM128 426.667c0 59.733 12.8 119.467 38.4 170.667l170.667-298.667h-187.733c-12.8 38.4-21.333 81.067-21.333 128zM682.667 554.667h187.733c12.8-38.4 21.333-81.067 21.333-128 0-59.733-12.8-119.467-38.4-170.667l-170.667 298.667zM832 640h-345.6l93.867 162.133c106.667-17.067 196.267-76.8 251.733-162.133zM486.4 810.667l-170.667-298.667-93.867 162.133c64 76.8 157.867 128 264.533 136.533zM192 213.334h345.6l-93.867-162.133c-106.667 17.067-196.267 76.8-251.733 162.133zM537.6 42.667l170.667 298.667 93.867-162.133c-64-76.8-157.867-128-264.533-136.533z" />
<glyph unicode="&#xe922;" glyph-name="arrow-down" d="M840.533 456.534c-17.067 17.067-42.667 17.067-59.733 0l-226.133-226.133v494.933c0 25.6-17.067 42.667-42.667 42.667s-42.667-17.067-42.667-42.667v-494.933l-226.133 226.133c-17.067 17.067-42.667 17.067-59.733 0s-17.067-42.667 0-59.733l298.667-298.667c4.267-4.267 8.533-8.533 12.8-8.533 4.267-4.267 12.8-4.267 17.067-4.267s12.8 0 17.067 4.267c4.267 4.267 8.533 4.267 12.8 8.533l298.667 298.667c17.067 17.067 17.067 42.667 0 59.733z" />
<glyph unicode="&#xe923;" glyph-name="arrow-down-circle" d="M512 896c-260.267 0-469.333-209.067-469.333-469.333s209.067-469.333 469.333-469.333 469.333 209.067 469.333 469.333-209.067 469.333-469.333 469.333zM512 42.667c-213.333 0-384 170.667-384 384s170.667 384 384 384c213.333 0 384-170.667 384-384s-170.667-384-384-384zM652.8 456.534l-98.133-98.133v238.933c0 25.6-17.067 42.667-42.667 42.667s-42.667-17.067-42.667-42.667v-238.933l-98.133 98.133c-17.067 17.067-42.667 17.067-59.733 0s-17.067-42.667 0-59.733l170.667-170.667c4.267-4.267 8.533-8.533 12.8-8.533 4.267-4.267 12.8-4.267 17.067-4.267s12.8 0 17.067 4.267c4.267 4.267 8.533 4.267 12.8 8.533l170.667 170.667c17.067 17.067 17.067 42.667 0 59.733s-42.667 17.067-59.733 0z" />
<glyph unicode="&#xe924;" glyph-name="arrow-down-left" d="M725.333 256h-324.267l354.133 354.133c17.067 17.067 17.067 42.667 0 59.733s-42.667 17.067-59.733 0l-354.133-354.133v324.267c0 25.6-17.067 42.667-42.667 42.667s-42.667-17.067-42.667-42.667v-426.667c0-4.267 0-12.8 4.267-17.067 4.267-8.533 12.8-17.067 21.333-21.333 4.267-4.267 12.8-4.267 17.067-4.267h426.667c25.6 0 42.667 17.067 42.667 42.667s-17.067 42.667-42.667 42.667z" />
<glyph unicode="&#xe925;" glyph-name="arrow-down-right" d="M768 640c0 25.6-17.067 42.667-42.667 42.667s-42.667-17.067-42.667-42.667v-324.267l-354.133 354.133c-17.067 17.067-42.667 17.067-59.733 0s-17.067-42.667 0-59.733l354.133-354.133h-324.267c-25.6 0-42.667-17.067-42.667-42.667s17.067-42.667 42.667-42.667h426.667c4.267 0 12.8 0 17.067 4.267 8.533 4.267 17.067 12.8 21.333 21.333 4.267 4.267 4.267 12.8 4.267 17.067v426.667z" />
<glyph unicode="&#xe926;" glyph-name="arrow-left" d="M810.667 469.334h-494.933l226.133 226.133c17.067 17.067 17.067 42.667 0 59.733s-42.667 17.067-59.733 0l-298.667-298.667c-4.267-4.267-8.533-8.533-8.533-12.8-4.267-8.533-4.267-21.333 0-34.133 4.267-4.267 4.267-8.533 8.533-12.8l298.667-298.667c8.533-8.533 21.333-12.8 29.867-12.8s21.333 4.267 29.867 12.8c17.067 17.067 17.067 42.667 0 59.733l-226.133 226.133h494.933c25.6 0 42.667 17.067 42.667 42.667s-17.067 42.667-42.667 42.667z" />
<glyph unicode="&#xe927;" glyph-name="arrow-left-circle" d="M512 896c-260.267 0-469.333-209.067-469.333-469.333s209.067-469.333 469.333-469.333 469.333 209.067 469.333 469.333-209.067 469.333-469.333 469.333zM512 42.667c-213.333 0-384 170.667-384 384s170.667 384 384 384c213.333 0 384-170.667 384-384s-170.667-384-384-384zM682.667 469.334h-238.933l98.133 98.133c17.067 17.067 17.067 42.667 0 59.733s-42.667 17.067-59.733 0l-170.667-170.667c-4.267-4.267-8.533-8.533-8.533-12.8-4.267-8.533-4.267-21.333 0-34.133 4.267-4.267 4.267-8.533 8.533-12.8l170.667-170.667c8.533-8.533 21.333-12.8 29.867-12.8s21.333 4.267 29.867 12.8c17.067 17.067 17.067 42.667 0 59.733l-98.133 98.133h238.933c25.6 0 42.667 17.067 42.667 42.667s-17.067 42.667-42.667 42.667z" />
<glyph unicode="&#xe928;" glyph-name="arrow-right" d="M849.067 409.6c4.267 8.533 4.267 21.333 0 34.133-4.267 4.267-4.267 8.533-8.533 12.8l-298.667 298.667c-17.067 17.067-42.667 17.067-59.733 0s-17.067-42.667 0-59.733l226.133-226.133h-494.933c-25.6 0-42.667-17.067-42.667-42.667s17.067-42.667 42.667-42.667h494.933l-226.133-226.133c-17.067-17.067-17.067-42.667 0-59.733 8.533-8.533 21.333-12.8 29.867-12.8s21.333 4.267 29.867 12.8l298.667 298.667c4.267 4.267 8.533 8.533 8.533 12.8z" />
<glyph unicode="&#xe929;" glyph-name="arrow-right-circle" d="M512 896c-260.267 0-469.333-209.067-469.333-469.333s209.067-469.333 469.333-469.333 469.333 209.067 469.333 469.333-209.067 469.333-469.333 469.333zM512 42.667c-213.333 0-384 170.667-384 384s170.667 384 384 384c213.333 0 384-170.667 384-384s-170.667-384-384-384zM721.067 443.734c-4.267 4.267-4.267 8.533-8.533 12.8l-170.667 170.667c-17.067 17.067-42.667 17.067-59.733 0s-17.067-42.667 0-59.733l98.133-98.133h-238.933c-25.6 0-42.667-17.067-42.667-42.667s17.067-42.667 42.667-42.667h238.933l-98.133-98.133c-17.067-17.067-17.067-42.667 0-59.733 8.533-8.533 21.333-12.8 29.867-12.8s21.333 4.267 29.867 12.8l170.667 170.667c4.267 4.267 8.533 8.533 8.533 12.8 4.267 12.8 4.267 21.333 0 34.133z" />
<glyph unicode="&#xe92a;" glyph-name="arrow-up" d="M840.533 456.534l-298.667 298.667c-4.267 4.267-8.533 8.533-12.8 8.533-8.533 4.267-21.333 4.267-34.133 0-4.267-4.267-8.533-4.267-12.8-8.533l-298.667-298.667c-17.067-17.067-17.067-42.667 0-59.733s42.667-17.067 59.733 0l226.133 226.133v-494.933c0-25.6 17.067-42.667 42.667-42.667s42.667 17.067 42.667 42.667v494.933l226.133-226.133c8.533-8.533 21.333-12.8 29.867-12.8s21.333 4.267 29.867 12.8c17.067 17.067 17.067 42.667 0 59.733z" />
<glyph unicode="&#xe92b;" glyph-name="arrow-up-circle" d="M512 896c-260.267 0-469.333-209.067-469.333-469.333s209.067-469.333 469.333-469.333 469.333 209.067 469.333 469.333-209.067 469.333-469.333 469.333zM512 42.667c-213.333 0-384 170.667-384 384s170.667 384 384 384c213.333 0 384-170.667 384-384s-170.667-384-384-384zM541.867 627.2c-4.267 4.267-8.533 8.533-12.8 8.533-8.533 4.267-21.333 4.267-34.133 0-4.267-4.267-8.533-4.267-12.8-8.533l-170.667-170.667c-17.067-17.067-17.067-42.667 0-59.733s42.667-17.067 59.733 0l98.133 98.133v-238.933c0-25.6 17.067-42.667 42.667-42.667s42.667 17.067 42.667 42.667v238.933l98.133-98.133c8.533-8.533 21.333-12.8 29.867-12.8s21.333 4.267 29.867 12.8c17.067 17.067 17.067 42.667 0 59.733l-170.667 170.667z" />
<glyph unicode="&#xe92c;" glyph-name="arrow-up-left" d="M401.067 597.334h324.267c25.6 0 42.667 17.067 42.667 42.667s-17.067 42.667-42.667 42.667h-426.667c-4.267 0-12.8 0-17.067-4.267-8.533-4.267-17.067-12.8-21.333-21.333-4.267-4.267-4.267-12.8-4.267-17.067v-426.667c0-25.6 17.067-42.667 42.667-42.667s42.667 17.067 42.667 42.667v324.267l354.133-354.133c8.533-8.533 21.333-12.8 29.867-12.8s21.333 4.267 29.867 12.8c17.067 17.067 17.067 42.667 0 59.733l-354.133 354.133z" />
<glyph unicode="&#xe92d;" glyph-name="arrow-up-right" d="M763.733 657.067c-4.267 8.533-12.8 17.067-21.333 21.333-4.267 4.267-12.8 4.267-17.067 4.267h-426.667c-25.6 0-42.667-17.067-42.667-42.667s17.067-42.667 42.667-42.667h324.267l-354.133-354.133c-17.067-17.067-17.067-42.667 0-59.733 8.533-8.533 17.067-12.8 29.867-12.8s21.333 4.267 29.867 12.8l354.133 354.133v-324.267c0-25.6 17.067-42.667 42.667-42.667s42.667 17.067 42.667 42.667v426.667c0 4.267 0 12.8-4.267 17.067z" />
<glyph unicode="&#xe92e;" glyph-name="at-sign" d="M512 896c-123.733 0-243.2-46.933-332.8-136.533s-136.533-209.067-136.533-332.8c0-260.267 209.067-469.333 469.333-469.333 102.4 0 204.8 34.133 285.867 98.133 17.067 12.8 21.333 42.667 8.533 59.733s-42.667 21.333-59.733 8.533c-68.267-51.2-149.333-81.067-234.667-81.067-213.333 0-384 170.667-384 384 0 102.4 38.4 200.533 110.933 273.067s170.667 110.933 273.067 110.933c213.333 0 384-170.667 384-384v-42.667c0-46.933-38.4-85.333-85.333-85.333s-85.333 38.4-85.333 85.333v213.333c0 25.6-17.067 42.667-42.667 42.667s-42.667-17.067-42.667-42.667v0c-34.133 25.6-81.067 42.667-128 42.667-119.467 0-213.333-93.867-213.333-213.333s93.867-213.333 213.333-213.333c64 0 119.467 29.867 157.867 72.533 29.867-42.667 81.067-72.533 140.8-72.533 93.867 0 170.667 76.8 170.667 170.667v42.667c0 260.267-209.067 469.333-469.333 469.333zM512 298.667c-72.533 0-128 55.467-128 128s55.467 128 128 128 128-55.467 128-128-55.467-128-128-128z" />
<glyph unicode="&#xe92f;" glyph-name="book" d="M853.333 896h-576c-81.067 0-149.333-68.267-149.333-149.333v-640c0-81.067 68.267-149.333 149.333-149.333h576c25.6 0 42.667 17.067 42.667 42.667v853.333c0 25.6-17.067 42.667-42.667 42.667zM277.333 810.667h533.333v-554.667h-533.333c-21.333 0-42.667-4.267-64-17.067v507.733c0 34.133 29.867 64 64 64zM277.333 42.667c-34.133 0-64 29.867-64 64s29.867 64 64 64h533.333v-128h-533.333z" />
<glyph unicode="&#xe930;" glyph-name="bookmark" d="M725.333 853.334h-426.667c-72.533 0-128-55.467-128-128v-682.667c0-17.067 8.533-29.867 21.333-38.4s29.867-4.267 42.667 4.267l273.067 196.267 273.067-196.267c8.533-4.267 17.067-8.533 25.6-8.533s12.8 0 21.333 4.267c12.8 8.533 21.333 21.333 21.333 38.4v682.667c4.267 72.533-51.2 128-123.733 128zM768 123.734l-230.4 166.4c-8.533 4.267-17.067 8.533-25.6 8.533s-17.067-4.267-25.6-8.533l-230.4-166.4v601.6c0 25.6 17.067 42.667 42.667 42.667h426.667c25.6 0 42.667-17.067 42.667-42.667v-601.6z" />
<glyph unicode="&#xe931;" glyph-name="briefcase" d="M853.333 682.667h-128v42.667c0 72.533-55.467 128-128 128h-170.667c-72.533 0-128-55.467-128-128v-42.667h-128c-72.533 0-128-55.467-128-128v-426.667c0-72.533 55.467-128 128-128h682.667c72.533 0 128 55.467 128 128v426.667c0 72.533-55.467 128-128 128zM384 725.334c0 25.6 17.067 42.667 42.667 42.667h170.667c25.6 0 42.667-17.067 42.667-42.667v-42.667h-256v42.667zM640 597.334v-512h-256v512h256zM128 128v426.667c0 25.6 17.067 42.667 42.667 42.667h128v-512h-128c-25.6 0-42.667 17.067-42.667 42.667zM896 128c0-25.6-17.067-42.667-42.667-42.667h-128v512h128c25.6 0 42.667-17.067 42.667-42.667v-426.667z" />
<glyph unicode="&#xe932;" glyph-name="calendar" d="M810.667 810.667h-85.333v42.667c0 25.6-17.067 42.667-42.667 42.667s-42.667-17.067-42.667-42.667v-42.667h-256v42.667c0 25.6-17.067 42.667-42.667 42.667s-42.667-17.067-42.667-42.667v-42.667h-85.333c-72.533 0-128-55.467-128-128v-597.333c0-72.533 55.467-128 128-128h597.333c72.533 0 128 55.467 128 128v597.333c0 72.533-55.467 128-128 128zM213.333 725.334h85.333v-42.667c0-25.6 17.067-42.667 42.667-42.667s42.667 17.067 42.667 42.667v42.667h256v-42.667c0-25.6 17.067-42.667 42.667-42.667s42.667 17.067 42.667 42.667v42.667h85.333c25.6 0 42.667-17.067 42.667-42.667v-128h-682.667v128c0 25.6 17.067 42.667 42.667 42.667zM810.667 42.667h-597.333c-25.6 0-42.667 17.067-42.667 42.667v384h682.667v-384c0-25.6-17.067-42.667-42.667-42.667z" />
<glyph unicode="&#xe933;" glyph-name="camera" d="M896 725.334h-149.333l-72.533 110.933c-8.533 8.533-21.333 17.067-34.133 17.067h-256c-12.8 0-25.6-8.533-34.133-17.067l-72.533-110.933h-149.333c-72.533 0-128-55.467-128-128v-469.333c0-72.533 55.467-128 128-128h768c72.533 0 128 55.467 128 128v469.333c0 72.533-55.467 128-128 128zM938.667 128c0-25.6-17.067-42.667-42.667-42.667h-768c-25.6 0-42.667 17.067-42.667 42.667v469.333c0 25.6 17.067 42.667 42.667 42.667h170.667c12.8 0 25.6 8.533 34.133 17.067l72.533 110.933h209.067l72.533-110.933c12.8-8.533 25.6-17.067 38.4-17.067h170.667c25.6 0 42.667-17.067 42.667-42.667v-469.333zM512 597.334c-119.467 0-213.333-93.867-213.333-213.333s93.867-213.333 213.333-213.333 213.333 93.867 213.333 213.333-93.867 213.333-213.333 213.333zM512 256c-72.533 0-128 55.467-128 128s55.467 128 128 128 128-55.467 128-128-55.467-128-128-128z" />
<glyph unicode="&#xe934;" glyph-name="check" d="M883.2 712.534c-17.067 17.067-42.667 17.067-59.733 0l-439.467-439.467-183.467 183.467c-17.067 17.067-42.667 17.067-59.733 0s-17.067-42.667 0-59.733l213.333-213.333c8.533-8.533 17.067-12.8 29.867-12.8s21.333 4.267 29.867 12.8l469.333 469.333c17.067 17.067 17.067 42.667 0 59.733z" />
<glyph unicode="&#xe935;" glyph-name="check-circle" d="M938.667 507.734c-25.6 0-42.667-17.067-42.667-42.667v-38.4c0-213.333-170.667-384-384-384 0 0 0 0 0 0-213.333 0-384 170.667-384 384s170.667 384 384 384c0 0 0 0 0 0 55.467 0 106.667-12.8 157.867-34.133 21.333-8.533 46.933 0 55.467 21.333s0 46.933-21.333 55.467c-59.733 25.6-123.733 42.667-192 42.667 0 0 0 0 0 0-260.267 0-469.333-209.067-469.333-469.333s209.067-469.333 469.333-469.333c0 0 0 0 0 0 260.267 0 469.333 209.067 469.333 469.333v38.4c0 25.6-17.067 42.667-42.667 42.667zM413.867 499.2c-17.067 17.067-42.667 17.067-59.733 0s-17.067-42.667 0-59.733l128-128c8.533-8.533 17.067-12.8 29.867-12.8s21.333 4.267 29.867 12.8l426.667 426.667c17.067 17.067 17.067 42.667 0 59.733s-42.667 17.067-59.733 0l-396.8-396.8-98.133 98.133z" />
<glyph unicode="&#xe936;" glyph-name="check-square" d="M968.533 797.867c-17.067 17.067-42.667 17.067-59.733 0l-396.8-396.8-98.133 98.133c-17.067 17.067-42.667 17.067-59.733 0s-17.067-42.667 0-59.733l128-128c8.533-8.533 21.333-12.8 29.867-12.8s21.333 4.267 29.867 12.8l426.667 426.667c17.067 17.067 17.067 42.667 0 59.733zM896 469.334c-25.6 0-42.667-17.067-42.667-42.667v-298.667c0-25.6-17.067-42.667-42.667-42.667h-597.333c-25.6 0-42.667 17.067-42.667 42.667v597.333c0 25.6 17.067 42.667 42.667 42.667h469.333c25.6 0 42.667 17.067 42.667 42.667s-17.067 42.667-42.667 42.667h-469.333c-72.533 0-128-55.467-128-128v-597.333c0-72.533 55.467-128 128-128h597.333c72.533 0 128 55.467 128 128v298.667c0 25.6-17.067 42.667-42.667 42.667z" />
<glyph unicode="&#xe937;" glyph-name="chevron-down" d="M797.867 584.534c-17.067 17.067-42.667 17.067-59.733 0l-226.133-226.133-226.133 226.133c-17.067 17.067-42.667 17.067-59.733 0s-17.067-42.667 0-59.733l256-256c8.533-8.533 21.333-12.8 29.867-12.8s21.333 4.267 29.867 12.8l256 256c17.067 17.067 17.067 42.667 0 59.733z" />
<glyph unicode="&#xe938;" glyph-name="chevron-left" d="M443.733 426.667l226.133 226.133c17.067 17.067 17.067 42.667 0 59.733s-42.667 17.067-59.733 0l-256-256c-17.067-17.067-17.067-42.667 0-59.733l256-256c8.533-8.533 21.333-12.8 29.867-12.8s21.333 4.267 29.867 12.8c17.067 17.067 17.067 42.667 0 59.733l-226.133 226.133z" />
<glyph unicode="&#xe939;" glyph-name="chevron-right" d="M669.867 456.534l-256 256c-17.067 17.067-42.667 17.067-59.733 0s-17.067-42.667 0-59.733l226.133-226.133-226.133-226.133c-17.067-17.067-17.067-42.667 0-59.733 8.533-8.533 17.067-12.8 29.867-12.8s21.333 4.267 29.867 12.8l256 256c17.067 17.067 17.067 42.667 0 59.733z" />
<glyph unicode="&#xe93a;" glyph-name="chevron-up" d="M797.867 328.534l-256 256c-17.067 17.067-42.667 17.067-59.733 0l-256-256c-17.067-17.067-17.067-42.667 0-59.733s42.667-17.067 59.733 0l226.133 226.133 226.133-226.133c8.533-8.533 21.333-12.8 29.867-12.8s21.333 4.267 29.867 12.8c17.067 17.067 17.067 42.667 0 59.733z" />
<glyph unicode="&#xe93b;" glyph-name="chevrons-down" d="M695.467 413.867l-183.467-183.467-183.467 183.467c-17.067 17.067-42.667 17.067-59.733 0s-17.067-42.667 0-59.733l213.333-213.333c8.533-8.533 21.333-12.8 29.867-12.8s21.333 4.267 29.867 12.8l213.333 213.333c17.067 17.067 17.067 42.667 0 59.733s-42.667 17.067-59.733 0zM482.133 439.467c8.533-8.533 21.333-12.8 29.867-12.8s21.333 4.267 29.867 12.8l213.333 213.333c17.067 17.067 17.067 42.667 0 59.733s-42.667 17.067-59.733 0l-183.467-183.467-183.467 183.467c-17.067 17.067-42.667 17.067-59.733 0s-17.067-42.667 0-59.733l213.333-213.333z" />
<glyph unicode="&#xe93c;" glyph-name="chevrons-left" d="M315.733 426.667l183.467 183.467c17.067 17.067 17.067 42.667 0 59.733s-42.667 17.067-59.733 0l-213.333-213.333c-17.067-17.067-17.067-42.667 0-59.733l213.333-213.333c8.533-8.533 21.333-12.8 29.867-12.8s21.333 4.267 29.867 12.8c17.067 17.067 17.067 42.667 0 59.733l-183.467 183.467zM614.4 426.667l183.467 183.467c17.067 17.067 17.067 42.667 0 59.733s-42.667 17.067-59.733 0l-213.333-213.333c-17.067-17.067-17.067-42.667 0-59.733l213.333-213.333c8.533-8.533 21.333-12.8 29.867-12.8s21.333 4.267 29.867 12.8c17.067 17.067 17.067 42.667 0 59.733l-183.467 183.467z" />
<glyph unicode="&#xe93d;" glyph-name="chevrons-right" d="M797.867 456.534l-213.333 213.333c-17.067 17.067-42.667 17.067-59.733 0s-17.067-42.667 0-59.733l183.467-183.467-183.467-183.467c-17.067-17.067-17.067-42.667 0-59.733 8.533-8.533 21.333-12.8 29.867-12.8s21.333 4.267 29.867 12.8l213.333 213.333c17.067 17.067 17.067 42.667 0 59.733zM499.2 456.534l-213.333 213.333c-17.067 17.067-42.667 17.067-59.733 0s-17.067-42.667 0-59.733l183.467-183.467-183.467-183.467c-17.067-17.067-17.067-42.667 0-59.733 8.533-8.533 17.067-12.8 29.867-12.8s21.333 4.267 29.867 12.8l213.333 213.333c17.067 17.067 17.067 42.667 0 59.733z" />
<glyph unicode="&#xe93e;" glyph-name="chevrons-up" d="M328.533 439.467l183.467 183.467 183.467-183.467c8.533-8.533 21.333-12.8 29.867-12.8s21.333 4.267 29.867 12.8c17.067 17.067 17.067 42.667 0 59.733l-213.333 213.333c-17.067 17.067-42.667 17.067-59.733 0l-213.333-213.333c-17.067-17.067-17.067-42.667 0-59.733s42.667-17.067 59.733 0zM541.867 413.867c-17.067 17.067-42.667 17.067-59.733 0l-213.333-213.333c-17.067-17.067-17.067-42.667 0-59.733s42.667-17.067 59.733 0l183.467 183.467 183.467-183.467c8.533-8.533 21.333-12.8 29.867-12.8s21.333 4.267 29.867 12.8c17.067 17.067 17.067 42.667 0 59.733l-213.333 213.333z" />
<glyph unicode="&#xe93f;" glyph-name="clipboard" d="M768 810.667h-42.667c0 46.933-38.4 85.333-85.333 85.333h-256c-46.933 0-85.333-38.4-85.333-85.333h-42.667c-72.533 0-128-55.467-128-128v-597.333c0-72.533 55.467-128 128-128h512c72.533 0 128 55.467 128 128v597.333c0 72.533-55.467 128-128 128zM384 810.667h256v-85.333h-256v42.667c0 0 0 0 0 0s0 0 0 0v42.667zM810.667 85.334c0-25.6-17.067-42.667-42.667-42.667h-512c-25.6 0-42.667 17.067-42.667 42.667v597.333c0 25.6 17.067 42.667 42.667 42.667h42.667c0-46.933 38.4-85.333 85.333-85.333h256c46.933 0 85.333 38.4 85.333 85.333h42.667c25.6 0 42.667-17.067 42.667-42.667v-597.333z" />
<glyph unicode="&#xe940;" glyph-name="clock" d="M512 896c-260.267 0-469.333-209.067-469.333-469.333s209.067-469.333 469.333-469.333 469.333 209.067 469.333 469.333-209.067 469.333-469.333 469.333zM512 42.667c-213.333 0-384 170.667-384 384s170.667 384 384 384c213.333 0 384-170.667 384-384s-170.667-384-384-384zM699.733 379.734l-145.067 72.533v230.4c0 25.6-17.067 42.667-42.667 42.667s-42.667-17.067-42.667-42.667v-256c0-17.067 8.533-29.867 25.6-38.4l170.667-85.333c4.267-4.267 8.533-4.267 17.067-4.267 17.067 0 29.867 8.533 38.4 25.6s0 42.667-21.333 55.467z" />
<glyph unicode="&#xe941;" glyph-name="codepen" d="M981.333 268.8c0 4.267 0 4.267 0 8.533v298.667c0 4.267 0 4.267 0 8.533 0 0 0 0 0 4.267s-4.267 8.533-4.267 12.8c0 0 0 0 0 0s0 0 0 0c-4.267 4.267-4.267 8.533-8.533 8.533v0c0 0 0 0 0 0l-426.667 277.333c0 0-4.267 0-4.267 0s-4.267 0-4.267 0c-8.533 4.267-21.333 4.267-29.867 0 0 0-4.267 0-4.267 0s-4.267 0-4.267 0l-426.667-277.333c-8.533 0-12.8-4.267-17.067-8.533 0 0 0 0 0 0s0 0 0 0c-4.267-8.533-4.267-12.8-8.533-17.067 0 0 0 0 0-4.267s0-4.267 0-8.533v-298.667c0-4.267 0-4.267 0-8.533 0 0 0 0 0-4.267s4.267-8.533 4.267-12.8c0 0 0 0 0 0s0 0 0 0c4.267-4.267 4.267-8.533 8.533-8.533l426.667-277.333c0 0 4.267 0 4.267 0s4.267 0 4.267 0 8.533-4.267 12.8-4.267 8.533 0 12.8 4.267c0 0 4.267 0 4.267 0s4.267 0 4.267 0l426.667 277.333c4.267 4.267 8.533 8.533 12.8 8.533 0 0 0 0 0 0s0 0 0 0c12.8 12.8 12.8 17.067 17.067 21.333 0 0 0 0 0 0zM128 494.934l98.133-68.267-98.133-68.267v136.533zM512 328.534l-140.8 98.133 140.8 98.133 140.8-98.133-140.8-98.133zM554.667 597.334v179.2l307.2-200.533-136.533-98.133-170.667 119.467zM469.333 597.334l-170.667-119.467-136.533 98.133 307.2 200.533v-179.2zM298.667 375.467l170.667-119.467v-174.933l-307.2 200.533 136.533 93.867zM554.667 256l170.667 119.467 136.533-93.867-307.2-204.8v179.2zM797.867 426.667l98.133 68.267v-136.533l-98.133 68.267z" />
<glyph unicode="&#xe942;" glyph-name="command" d="M768 341.334h-85.333v170.667h85.333c93.867 0 170.667 76.8 170.667 170.667s-76.8 170.667-170.667 170.667-170.667-76.8-170.667-170.667v-85.333h-170.667v85.333c0 93.867-76.8 170.667-170.667 170.667s-170.667-76.8-170.667-170.667 76.8-170.667 170.667-170.667h85.333v-170.667h-85.333c-93.867 0-170.667-76.8-170.667-170.667s76.8-170.667 170.667-170.667 170.667 76.8 170.667 170.667v85.333h170.667v-85.333c0-93.867 76.8-170.667 170.667-170.667s170.667 76.8 170.667 170.667-76.8 170.667-170.667 170.667zM682.667 682.667c0 46.933 38.4 85.333 85.333 85.333s85.333-38.4 85.333-85.333-38.4-85.333-85.333-85.333h-85.333v85.333zM341.333 170.667c0-46.933-38.4-85.333-85.333-85.333s-85.333 38.4-85.333 85.333 38.4 85.333 85.333 85.333h85.333v-85.333zM341.333 597.334h-85.333c-46.933 0-85.333 38.4-85.333 85.333s38.4 85.333 85.333 85.333 85.333-38.4 85.333-85.333v-85.333zM597.333 341.334h-170.667v170.667h170.667v-170.667zM768 85.334c-46.933 0-85.333 38.4-85.333 85.333v85.333h85.333c46.933 0 85.333-38.4 85.333-85.333s-38.4-85.333-85.333-85.333z" />
<glyph unicode="&#xe943;" glyph-name="compass" d="M512 896c-260.267 0-469.333-209.067-469.333-469.333s209.067-469.333 469.333-469.333 469.333 209.067 469.333 469.333-209.067 469.333-469.333 469.333zM512 42.667c-213.333 0-384 170.667-384 384s170.667 384 384 384c213.333 0 384-170.667 384-384s-170.667-384-384-384zM678.4 648.534l-268.8-89.6c-12.8-4.267-25.6-17.067-29.867-29.867l-89.6-273.067c-4.267-17.067 0-34.133 8.533-42.667s17.067-12.8 29.867-12.8c4.267 0 8.533 0 12.8 4.267l273.067 89.6c12.8 4.267 21.333 12.8 25.6 25.6l89.6 273.067c4.267 17.067 0 34.133-8.533 42.667-8.533 12.8-25.6 17.067-42.667 12.8zM567.467 371.2l-170.667-55.467 55.467 170.667 170.667 55.467-55.467-170.667z" />
<glyph unicode="&#xe944;" glyph-name="copy" d="M853.333 597.334h-384c-72.533 0-128-55.467-128-128v-384c0-72.533 55.467-128 128-128h384c72.533 0 128 55.467 128 128v384c0 72.533-55.467 128-128 128zM896 85.334c0-25.6-17.067-42.667-42.667-42.667h-384c-25.6 0-42.667 17.067-42.667 42.667v384c0 25.6 17.067 42.667 42.667 42.667h384c25.6 0 42.667-17.067 42.667-42.667v-384zM213.333 341.334h-42.667c-25.6 0-42.667 17.067-42.667 42.667v384c0 25.6 17.067 42.667 42.667 42.667h384c25.6 0 42.667-17.067 42.667-42.667v-42.667c0-25.6 17.067-42.667 42.667-42.667s42.667 17.067 42.667 42.667v42.667c0 72.533-55.467 128-128 128h-384c-72.533 0-128-55.467-128-128v-384c0-72.533 55.467-128 128-128h42.667c25.6 0 42.667 17.067 42.667 42.667s-17.067 42.667-42.667 42.667z" />
<glyph unicode="&#xe945;" glyph-name="corner-down-right" d="M891.733 281.6c4.267 8.533 4.267 21.333 0 34.133-4.267 4.267-4.267 8.533-8.533 12.8l-213.333 213.333c-17.067 17.067-42.667 17.067-59.733 0s-17.067-42.667 0-59.733l140.8-140.8h-409.6c-72.533 0-128 55.467-128 128v298.667c0 25.6-17.067 42.667-42.667 42.667s-42.667-17.067-42.667-42.667v-298.667c0-119.467 93.867-213.333 213.333-213.333h409.6l-140.8-140.8c-17.067-17.067-17.067-42.667 0-59.733 8.533-8.533 21.333-12.8 29.867-12.8s21.333 4.267 29.867 12.8l213.333 213.333c4.267 4.267 8.533 8.533 8.533 12.8z" />
<glyph unicode="&#xe946;" glyph-name="corner-left-down" d="M853.333 810.667h-298.667c-119.467 0-213.333-93.867-213.333-213.333v-409.6l-140.8 140.8c-17.067 17.067-42.667 17.067-59.733 0s-17.067-42.667 0-59.733l213.333-213.333c4.267-4.267 8.533-8.533 12.8-8.533 4.267-4.267 12.8-4.267 17.067-4.267s12.8 0 17.067 4.267c4.267 4.267 8.533 4.267 12.8 8.533l213.333 213.333c17.067 17.067 17.067 42.667 0 59.733s-42.667 17.067-59.733 0l-140.8-140.8v409.6c0 72.533 55.467 128 128 128h298.667c25.6 0 42.667 17.067 42.667 42.667s-17.067 42.667-42.667 42.667z" />
<glyph unicode="&#xe947;" glyph-name="corner-left-up" d="M853.333 128h-298.667c-72.533 0-128 55.467-128 128v409.6l140.8-140.8c8.533-8.533 17.067-12.8 29.867-12.8s21.333 4.267 29.867 12.8c17.067 17.067 17.067 42.667 0 59.733l-213.333 213.333c-4.267 4.267-8.533 8.533-12.8 8.533-12.8 4.267-21.333 4.267-34.133 0-4.267 0-8.533-4.267-12.8-8.533l-213.333-213.333c-17.067-17.067-17.067-42.667 0-59.733s42.667-17.067 59.733 0l140.8 140.8v-409.6c0-119.467 93.867-213.333 213.333-213.333h298.667c25.6 0 42.667 17.067 42.667 42.667s-17.067 42.667-42.667 42.667z" />
<glyph unicode="&#xe948;" glyph-name="corner-right-down" d="M883.2 328.534c-17.067 17.067-42.667 17.067-59.733 0l-140.8-140.8v409.6c0 119.467-93.867 213.333-213.333 213.333h-298.667c-25.6 0-42.667-17.067-42.667-42.667s17.067-42.667 42.667-42.667h298.667c72.533 0 128-55.467 128-128v-409.6l-140.8 140.8c-17.067 17.067-42.667 17.067-59.733 0s-17.067-42.667 0-59.733l213.333-213.333c4.267-4.267 8.533-8.533 12.8-8.533 4.267-4.267 12.8-4.267 17.067-4.267s12.8 0 17.067 4.267c4.267 4.267 8.533 4.267 12.8 8.533l213.333 213.333c17.067 17.067 17.067 42.667 0 59.733z" />
<glyph unicode="&#xe949;" glyph-name="credit-card" d="M896 810.667h-768c-72.533 0-128-55.467-128-128v-512c0-72.533 55.467-128 128-128h768c72.533 0 128 55.467 128 128v512c0 72.533-55.467 128-128 128zM128 725.334h768c25.6 0 42.667-17.067 42.667-42.667v-128h-853.333v128c0 25.6 17.067 42.667 42.667 42.667zM896 128h-768c-25.6 0-42.667 17.067-42.667 42.667v298.667h853.333v-298.667c0-25.6-17.067-42.667-42.667-42.667z" />
<glyph unicode="&#xe94a;" glyph-name="crop" d="M981.333 213.334h-170.667v384c0 72.533-55.467 128-128 128l-379.733-4.267v174.933c0 25.6-17.067 42.667-42.667 42.667 0 0 0 0 0 0-21.333 0-42.667-17.067-42.667-42.667v-174.933h-174.933c-25.6 0-42.667-21.333-42.667-42.667s21.333-42.667 42.667-42.667c0 0 0 0 0 0h174.933l-4.267-379.733c0-72.533 55.467-128 128-128h384v-170.667c0-25.6 17.067-42.667 42.667-42.667s42.667 17.067 42.667 42.667v170.667h170.667c25.6 0 42.667 17.067 42.667 42.667s-17.067 42.667-42.667 42.667zM341.333 213.334c-25.6 0-42.667 17.067-42.667 42.667l4.267 379.733 379.733 4.267c25.6 0 42.667-17.067 42.667-42.667v-384h-384z" />
<glyph unicode="&#xe94b;" glyph-name="crosshair" d="M512 896c-260.267 0-469.333-209.067-469.333-469.333s209.067-469.333 469.333-469.333 469.333 209.067 469.333 469.333-209.067 469.333-469.333 469.333zM554.667 46.934v123.733c0 25.6-17.067 42.667-42.667 42.667s-42.667-17.067-42.667-42.667v-123.733c-179.2 21.333-320 162.133-337.067 337.067h123.733c25.6 0 42.667 17.067 42.667 42.667s-17.067 42.667-42.667 42.667h-123.733c17.067 179.2 157.867 320 337.067 337.067v-123.733c0-25.6 17.067-42.667 42.667-42.667s42.667 17.067 42.667 42.667v123.733c179.2-21.333 320-162.133 337.067-337.067h-123.733c-25.6 0-42.667-17.067-42.667-42.667s17.067-42.667 42.667-42.667h123.733c-17.067-179.2-157.867-320-337.067-337.067z" />
<glyph unicode="&#xe94c;" glyph-name="database" d="M512 896c-204.8 0-426.667-55.467-426.667-170.667v-597.333c0-115.2 221.867-170.667 426.667-170.667s426.667 55.467 426.667 170.667v597.333c0 115.2-221.867 170.667-426.667 170.667zM853.333 426.667c0-21.333-106.667-85.333-341.333-85.333s-341.333 64-341.333 85.333v192c81.067-42.667 213.333-64 341.333-64s260.267 21.333 341.333 64v-192zM512 810.667c221.867 0 341.333-64 341.333-85.333s-119.467-85.333-341.333-85.333c-221.867 0-341.333 64-341.333 85.333s119.467 85.333 341.333 85.333zM512 42.667c-234.667 0-341.333 64-341.333 85.333v192c81.067-42.667 213.333-64 341.333-64s260.267 21.333 341.333 64v-192c0-21.333-106.667-85.333-341.333-85.333z" />
<glyph unicode="&#xe94d;" glyph-name="delete" d="M896 810.667h-554.667c-12.8 0-25.6-4.267-34.133-12.8l-298.667-341.333c-12.8-17.067-12.8-38.4 0-55.467l298.667-341.333c8.533-12.8 21.333-17.067 34.133-17.067h554.667c72.533 0 128 55.467 128 128v512c0 72.533-55.467 128-128 128zM938.667 170.667c0-25.6-17.067-42.667-42.667-42.667h-533.333l-260.267 298.667 260.267 298.667h533.333c25.6 0 42.667-17.067 42.667-42.667v-512zM797.867 584.534c-17.067 17.067-42.667 17.067-59.733 0l-98.133-98.133-98.133 98.133c-17.067 17.067-42.667 17.067-59.733 0s-17.067-42.667 0-59.733l98.133-98.133-98.133-98.133c-17.067-17.067-17.067-42.667 0-59.733 8.533-8.533 21.333-12.8 29.867-12.8s21.333 4.267 29.867 12.8l98.133 98.133 98.133-98.133c8.533-8.533 21.333-12.8 29.867-12.8s21.333 4.267 29.867 12.8c17.067 17.067 17.067 42.667 0 59.733l-98.133 98.133 98.133 98.133c17.067 17.067 17.067 42.667 0 59.733z" />
<glyph unicode="&#xe94e;" glyph-name="disc" d="M512 896c-260.267 0-469.333-209.067-469.333-469.333s209.067-469.333 469.333-469.333 469.333 209.067 469.333 469.333-209.067 469.333-469.333 469.333zM512 42.667c-213.333 0-384 170.667-384 384s170.667 384 384 384c213.333 0 384-170.667 384-384s-170.667-384-384-384zM512 597.334c-93.867 0-170.667-76.8-170.667-170.667s76.8-170.667 170.667-170.667c93.867 0 170.667 76.8 170.667 170.667s-76.8 170.667-170.667 170.667zM512 341.334c-46.933 0-85.333 38.4-85.333 85.333s38.4 85.333 85.333 85.333c46.933 0 85.333-38.4 85.333-85.333s-38.4-85.333-85.333-85.333z" />
<glyph unicode="&#xe94f;" glyph-name="dollar-sign" d="M618.667 469.334h-64v213.333h170.667c25.6 0 42.667 17.067 42.667 42.667s-17.067 42.667-42.667 42.667h-170.667v128c0 25.6-17.067 42.667-42.667 42.667s-42.667-17.067-42.667-42.667v-128h-64c-106.667 0-192-85.333-192-192s85.333-192 192-192h64v-213.333h-213.333c-25.6 0-42.667-17.067-42.667-42.667s17.067-42.667 42.667-42.667h213.333v-128c0-25.6 17.067-42.667 42.667-42.667s42.667 17.067 42.667 42.667v128h64c106.667 0 192 85.333 192 192s-85.333 192-192 192zM405.333 469.334c-59.733 0-106.667 46.933-106.667 106.667s46.933 106.667 106.667 106.667h64v-213.333h-64zM618.667 170.667h-64v213.333h64c59.733 0 106.667-46.933 106.667-106.667s-46.933-106.667-106.667-106.667z" />
<glyph unicode="&#xe950;" glyph-name="download" d="M896 341.334c-25.6 0-42.667-17.067-42.667-42.667v-170.667c0-25.6-17.067-42.667-42.667-42.667h-597.333c-25.6 0-42.667 17.067-42.667 42.667v170.667c0 25.6-17.067 42.667-42.667 42.667s-42.667-17.067-42.667-42.667v-170.667c0-72.533 55.467-128 128-128h597.333c72.533 0 128 55.467 128 128v170.667c0 25.6-17.067 42.667-42.667 42.667zM482.133 268.8c4.267-4.267 8.533-8.533 12.8-8.533 4.267-4.267 12.8-4.267 17.067-4.267s12.8 0 17.067 4.267c4.267 4.267 8.533 4.267 12.8 8.533l213.333 213.333c17.067 17.067 17.067 42.667 0 59.733s-42.667 17.067-59.733 0l-140.8-140.8v409.6c0 25.6-17.067 42.667-42.667 42.667s-42.667-17.067-42.667-42.667v-409.6l-140.8 140.8c-17.067 17.067-42.667 17.067-59.733 0s-17.067-42.667 0-59.733l213.333-213.333z" />
<glyph unicode="&#xe951;" glyph-name="download-cloud" d="M652.8 243.2l-98.133-98.133v281.6c0 25.6-17.067 42.667-42.667 42.667s-42.667-17.067-42.667-42.667v-281.6l-98.133 98.133c-17.067 17.067-42.667 17.067-59.733 0s-17.067-42.667 0-59.733l170.667-170.667c4.267-4.267 8.533-8.533 12.8-8.533 4.267-4.267 12.8-4.267 17.067-4.267s12.8 0 17.067 4.267c4.267 4.267 8.533 4.267 12.8 8.533l170.667 170.667c17.067 17.067 17.067 42.667 0 59.733s-42.667 17.067-59.733 0zM977.067 490.667c-46.933 64-123.733 106.667-209.067 106.667 0 0 0 0 0 0h-21.333c-64 187.733-264.533 294.4-456.533 243.2-102.4-25.6-183.467-85.333-238.933-174.933-51.2-89.6-68.267-192-42.667-290.133 17.067-59.733 42.667-115.2 85.333-157.867 17.067-17.067 42.667-21.333 59.733-4.267s21.333 42.667 4.267 59.733c-29.867 34.133-55.467 76.8-64 123.733-21.333 76.8-8.533 157.867 34.133 226.133s106.667 119.467 183.467 136.533c157.867 42.667 324.267-55.467 362.667-213.333 4.267-17.067 21.333-34.133 42.667-34.133h51.2c0 0 0 0 0 0 55.467 0 106.667-25.6 140.8-72.533 25.6-38.4 38.4-81.067 29.867-128s-34.133-85.333-68.267-110.933c-21.333-12.8-25.6-38.4-8.533-59.733 8.533-12.8 21.333-17.067 34.133-17.067 8.533 0 17.067 4.267 25.6 8.533 55.467 38.4 93.867 98.133 106.667 166.4s-12.8 132.267-51.2 192z" />
<glyph unicode="&#xe952;" glyph-name="droplet" d="M785.067 614.4l-243.2 238.933c-8.533 8.533-17.067 12.8-29.867 12.8v0c-12.8 0-21.333-4.267-29.867-12.8l-238.933-238.933c0 0 0 0 0 0-76.8-72.533-115.2-170.667-115.2-273.067s38.4-200.533 110.933-273.067c72.533-72.533 170.667-110.933 273.067-110.933 0 0 0 0 0 0 102.4 0 200.533 38.4 273.067 110.933 149.333 149.333 149.333 392.533 0 546.133zM725.333 128c-59.733-55.467-132.267-85.333-213.333-85.333 0 0 0 0 0 0-81.067 0-153.6 29.867-209.067 85.333-59.733 59.733-89.6 132.267-89.6 213.333s29.867 153.6 85.333 209.067c0 0 0 0 0 0l209.067 213.333 213.333-213.333c119.467-115.2 119.467-302.933 4.267-422.4z" />
<glyph unicode="&#xe953;" glyph-name="edit" d="M853.333 354.134c-25.6 0-42.667-17.067-42.667-42.667v-226.133c0-25.6-17.067-42.667-42.667-42.667h-597.333c-25.6 0-42.667 17.067-42.667 42.667v597.333c0 25.6 17.067 42.667 42.667 42.667h226.133c25.6 0 42.667 17.067 42.667 42.667s-17.067 42.667-42.667 42.667h-226.133c-72.533 0-128-55.467-128-128v-597.333c0-72.533 55.467-128 128-128h597.333c72.533 0 128 55.467 128 128v226.133c0 25.6-17.067 42.667-42.667 42.667zM968.533 712.534l-170.667 170.667c-17.067 17.067-42.667 17.067-59.733 0l-426.667-426.667c-8.533-8.533-12.8-17.067-12.8-29.867v-170.667c0-25.6 17.067-42.667 42.667-42.667h170.667c12.8 0 21.333 4.267 29.867 12.8l426.667 426.667c17.067 17.067 17.067 42.667 0 59.733zM494.933 298.667h-110.933v110.933l384 384 110.933-110.933-384-384z" />
<glyph unicode="&#xe954;" glyph-name="edit-2" d="M925.867 627.2l-213.333 213.333c-17.067 17.067-42.667 17.067-59.733 0l-554.667-554.667c-8.533-8.533-12.8-17.067-12.8-29.867v-213.333c0-25.6 17.067-42.667 42.667-42.667h213.333c12.8 0 21.333 4.267 29.867 12.8l554.667 554.667c17.067 17.067 17.067 42.667 0 59.733zM324.267 85.334h-153.6v153.6l512 512 153.6-153.6-512-512z" />
<glyph unicode="&#xe955;" glyph-name="edit-3" d="M128 170.667h170.667c12.8 0 21.333 4.267 29.867 12.8l469.333 469.333c17.067 17.067 17.067 42.667 0 59.733l-170.667 170.667c-17.067 17.067-42.667 17.067-59.733 0l-469.333-469.333c-8.533-8.533-12.8-17.067-12.8-29.867v-170.667c0-25.6 17.067-42.667 42.667-42.667zM170.667 366.934l426.667 426.667 110.933-110.933-426.667-426.667h-110.933v110.933zM896 42.667h-768c-25.6 0-42.667-17.067-42.667-42.667s17.067-42.667 42.667-42.667h768c25.6 0 42.667 17.067 42.667 42.667s-17.067 42.667-42.667 42.667z" />
<glyph unicode="&#xe956;" glyph-name="external-link" d="M768 426.667c-25.6 0-42.667-17.067-42.667-42.667v-256c0-25.6-17.067-42.667-42.667-42.667h-469.333c-25.6 0-42.667 17.067-42.667 42.667v469.333c0 25.6 17.067 42.667 42.667 42.667h256c25.6 0 42.667 17.067 42.667 42.667s-17.067 42.667-42.667 42.667h-256c-72.533 0-128-55.467-128-128v-469.333c0-72.533 55.467-128 128-128h469.333c72.533 0 128 55.467 128 128v256c0 25.6-17.067 42.667-42.667 42.667zM934.4 827.734c-4.267 8.533-12.8 17.067-21.333 21.333-4.267 4.267-12.8 4.267-17.067 4.267h-256c-25.6 0-42.667-17.067-42.667-42.667s17.067-42.667 42.667-42.667h153.6l-396.8-396.8c-17.067-17.067-17.067-42.667 0-59.733 8.533-8.533 17.067-12.8 29.867-12.8s21.333 4.267 29.867 12.8l396.8 396.8v-153.6c0-25.6 17.067-42.667 42.667-42.667s42.667 17.067 42.667 42.667v256c0 4.267 0 12.8-4.267 17.067z" />
<glyph unicode="&#xe957;" glyph-name="eye" d="M1019.733 443.734c-8.533 17.067-187.733 366.933-507.733 366.933s-499.2-349.867-507.733-366.933c-4.267-12.8-4.267-25.6 0-38.4 8.533-12.8 187.733-362.667 507.733-362.667s499.2 349.867 507.733 366.933c4.267 8.533 4.267 25.6 0 34.133zM512 128c-230.4 0-379.733 230.4-422.4 298.667 38.4 68.267 192 298.667 422.4 298.667s379.733-230.4 422.4-298.667c-42.667-68.267-192-298.667-422.4-298.667zM512 597.334c-93.867 0-170.667-76.8-170.667-170.667s76.8-170.667 170.667-170.667c93.867 0 170.667 76.8 170.667 170.667s-76.8 170.667-170.667 170.667zM512 341.334c-46.933 0-85.333 38.4-85.333 85.333s38.4 85.333 85.333 85.333c46.933 0 85.333-38.4 85.333-85.333s-38.4-85.333-85.333-85.333z" />
<glyph unicode="&#xe958;" glyph-name="eye-off" d="M430.933 716.8c25.6 4.267 55.467 8.533 81.067 8.533 230.4 0 379.733-230.4 422.4-298.667-21.333-38.4-46.933-76.8-76.8-106.667-17.067-17.067-12.8-46.933 4.267-59.733 8.533-8.533 17.067-8.533 25.6-8.533 12.8 0 25.6 4.267 34.133 17.067 38.4 42.667 68.267 93.867 98.133 145.067 8.533 12.8 8.533 25.6 0 38.4-8.533 8.533-187.733 358.4-507.733 358.4-34.133 0-68.267-4.267-98.133-12.8-25.6-4.267-38.4-25.6-34.133-51.2 8.533-21.333 29.867-34.133 51.2-29.867zM1011.2-12.8l-938.667 938.667c-17.067 17.067-42.667 17.067-59.733 0s-17.067-42.667 0-59.733l183.467-183.467c-76.8-68.267-140.8-145.067-192-234.667-8.533-12.8-8.533-25.6 0-38.4 8.533-17.067 187.733-366.933 507.733-366.933 89.6 0 174.933 25.6 247.467 76.8l192-192c8.533-8.533 21.333-12.8 29.867-12.8s21.333 4.267 29.867 12.8c17.067 17.067 17.067 42.667 0 59.733zM426.667 452.267l106.667-106.667c-8.533-4.267-17.067-4.267-25.6-4.267-21.333 0-42.667 8.533-59.733 21.333-17.067 17.067-25.6 38.4-25.6 59.733 0 8.533 4.267 17.067 4.267 29.867zM512 128c-230.4 0-379.733 230.4-422.4 298.667 42.667 76.8 98.133 140.8 166.4 196.267l106.667-110.933c-17.067-29.867-25.6-64-25.6-98.133 0-46.933 21.333-89.6 55.467-119.467 29.867-29.867 72.533-46.933 115.2-46.933 0 0 4.267 0 4.267 0 29.867 0 59.733 12.8 85.333 25.6l98.133-98.133c-55.467-29.867-119.467-46.933-183.467-46.933z" />
<glyph unicode="&#xe959;" glyph-name="facebook" d="M768 640c25.6 0 42.667 17.067 42.667 42.667v170.667c0 25.6-17.067 42.667-42.667 42.667h-128c-140.8 0-256-115.2-256-256v-85.333h-85.333c-25.6 0-42.667-17.067-42.667-42.667v-170.667c0-25.6 17.067-42.667 42.667-42.667h85.333v-298.667c0-25.6 17.067-42.667 42.667-42.667h170.667c25.6 0 42.667 17.067 42.667 42.667v298.667h85.333c21.333 0 38.4 12.8 42.667 34.133l42.667 170.667c4.267 12.8 0 25.6-8.533 38.4s-21.333 12.8-34.133 12.8h-128v85.333h128zM597.333 469.334h115.2l-21.333-85.333h-93.867c-25.6 0-42.667-17.067-42.667-42.667v-298.667h-85.333v298.667c0 25.6-17.067 42.667-42.667 42.667h-85.333v85.333h85.333c25.6 0 42.667 17.067 42.667 42.667v128c0 93.867 76.8 170.667 170.667 170.667h85.333v-85.333h-85.333c-46.933 0-85.333-38.4-85.333-85.333v-128c0-25.6 17.067-42.667 42.667-42.667z" />
<glyph unicode="&#xe95a;" glyph-name="fast-forward" d="M964.267 460.8l-384 298.667c-12.8 8.533-29.867 12.8-46.933 4.267-12.8-8.533-21.333-21.333-21.333-38.4v-597.333c0-17.067 8.533-29.867 25.6-38.4 4.267-4.267 12.8-4.267 17.067-4.267 8.533 0 17.067 4.267 25.6 8.533l384 298.667c8.533 8.533 17.067 21.333 17.067 34.133s-4.267 25.6-17.067 34.133zM597.333 213.334v426.667l273.067-213.333-273.067-213.333zM110.933 759.467c-12.8 8.533-29.867 12.8-42.667 4.267-17.067-8.533-25.6-21.333-25.6-38.4v-597.333c0-17.067 8.533-29.867 25.6-38.4 4.267-4.267 12.8-4.267 17.067-4.267 8.533 0 17.067 4.267 25.6 8.533l384 298.667c8.533 8.533 17.067 21.333 17.067 34.133s-4.267 25.6-17.067 34.133l-384 298.667zM128 213.334v426.667l273.067-213.333-273.067-213.333z" />
<glyph unicode="&#xe95b;" glyph-name="feather" d="M891.733 810.667c-115.2 115.2-307.2 115.2-422.4 0l-285.867-290.133c-8.533-8.533-12.8-17.067-12.8-29.867v-345.6l-115.2-115.2c-17.067-17.067-17.067-42.667 0-59.733 8.533-8.533 17.067-12.8 29.867-12.8s21.333 4.267 29.867 12.8l115.2 115.2h345.6c12.8 0 21.333 4.267 29.867 12.8l285.867 290.133c119.467 115.2 119.467 302.933 0 422.4zM558.933 170.667h-243.2l85.333 85.333h243.2l-85.333-85.333zM832 448c0 0 0 0 0 0l-102.4-106.667c0 0 0 0-4.267 0h-238.933l226.133 226.133c17.067 17.067 17.067 42.667 0 59.733s-42.667 17.067-59.733 0l-298.667-298.667c0 0 0 0 0 0l-98.133-98.133v243.2l277.333 277.333c85.333 85.333 217.6 85.333 302.933 0 81.067-85.333 81.067-221.867-4.267-302.933z" />
<glyph unicode="&#xe95c;" glyph-name="file" d="M891.733 571.734c-4.267 4.267-4.267 8.533-8.533 12.8l-298.667 298.667c-4.267 4.267-8.533 8.533-12.8 8.533-4.267 4.267-12.8 4.267-17.067 4.267h-298.667c-72.533 0-128-55.467-128-128v-682.667c0-72.533 55.467-128 128-128h512c72.533 0 128 55.467 128 128v469.333c0 4.267 0 12.8-4.267 17.067zM597.333 750.934l153.6-153.6h-153.6v153.6zM768 42.667h-512c-25.6 0-42.667 17.067-42.667 42.667v682.667c0 25.6 17.067 42.667 42.667 42.667h256v-256c0-25.6 17.067-42.667 42.667-42.667h256v-426.667c0-25.6-17.067-42.667-42.667-42.667z" />
<glyph unicode="&#xe95d;" glyph-name="file-minus" d="M891.733 614.4c-4.267 4.267-4.267 8.533-8.533 12.8l-256 256c-4.267 4.267-8.533 8.533-12.8 8.533-4.267 4.267-12.8 4.267-17.067 4.267h-341.333c-72.533 0-128-55.467-128-128v-682.667c0-72.533 55.467-128 128-128h512c72.533 0 128 55.467 128 128v512c0 4.267 0 12.8-4.267 17.067zM640 750.934l110.933-110.933h-110.933v110.933zM768 42.667h-512c-25.6 0-42.667 17.067-42.667 42.667v682.667c0 25.6 17.067 42.667 42.667 42.667h298.667v-213.333c0-25.6 17.067-42.667 42.667-42.667h213.333v-469.333c0-25.6-17.067-42.667-42.667-42.667zM640 341.334h-256c-25.6 0-42.667-17.067-42.667-42.667s17.067-42.667 42.667-42.667h256c25.6 0 42.667 17.067 42.667 42.667s-17.067 42.667-42.667 42.667z" />
<glyph unicode="&#xe95e;" glyph-name="file-plus" d="M891.733 614.4c-4.267 4.267-4.267 8.533-8.533 12.8l-256 256c-4.267 4.267-8.533 8.533-12.8 8.533-4.267 4.267-12.8 4.267-17.067 4.267h-341.333c-72.533 0-128-55.467-128-128v-682.667c0-72.533 55.467-128 128-128h512c72.533 0 128 55.467 128 128v512c0 4.267 0 12.8-4.267 17.067zM640 750.934l110.933-110.933h-110.933v110.933zM768 42.667h-512c-25.6 0-42.667 17.067-42.667 42.667v682.667c0 25.6 17.067 42.667 42.667 42.667h298.667v-213.333c0-25.6 17.067-42.667 42.667-42.667h213.333v-469.333c0-25.6-17.067-42.667-42.667-42.667zM640 341.334h-85.333v85.333c0 25.6-17.067 42.667-42.667 42.667s-42.667-17.067-42.667-42.667v-85.333h-85.333c-25.6 0-42.667-17.067-42.667-42.667s17.067-42.667 42.667-42.667h85.333v-85.333c0-25.6 17.067-42.667 42.667-42.667s42.667 17.067 42.667 42.667v85.333h85.333c25.6 0 42.667 17.067 42.667 42.667s-17.067 42.667-42.667 42.667z" />
<glyph unicode="&#xe95f;" glyph-name="file-text" d="M891.733 614.4c-4.267 4.267-4.267 8.533-8.533 12.8l-256 256c-4.267 4.267-8.533 8.533-12.8 8.533-4.267 4.267-12.8 4.267-17.067 4.267h-341.333c-72.533 0-128-55.467-128-128v-682.667c0-72.533 55.467-128 128-128h512c72.533 0 128 55.467 128 128v512c0 4.267 0 12.8-4.267 17.067zM640 750.934l110.933-110.933h-110.933v110.933zM768 42.667h-512c-25.6 0-42.667 17.067-42.667 42.667v682.667c0 25.6 17.067 42.667 42.667 42.667h298.667v-213.333c0-25.6 17.067-42.667 42.667-42.667h213.333v-469.333c0-25.6-17.067-42.667-42.667-42.667zM682.667 426.667h-341.333c-25.6 0-42.667-17.067-42.667-42.667s17.067-42.667 42.667-42.667h341.333c25.6 0 42.667 17.067 42.667 42.667s-17.067 42.667-42.667 42.667zM682.667 256h-341.333c-25.6 0-42.667-17.067-42.667-42.667s17.067-42.667 42.667-42.667h341.333c25.6 0 42.667 17.067 42.667 42.667s-17.067 42.667-42.667 42.667zM341.333 512h85.333c25.6 0 42.667 17.067 42.667 42.667s-17.067 42.667-42.667 42.667h-85.333c-25.6 0-42.667-17.067-42.667-42.667s17.067-42.667 42.667-42.667z" />
<glyph unicode="&#xe960;" glyph-name="film" d="M844.8 896h-665.6c-76.8 0-136.533-59.733-136.533-136.533v-665.6c0-76.8 59.733-136.533 136.533-136.533h665.6c76.8 0 136.533 59.733 136.533 136.533v665.6c0 76.8-59.733 136.533-136.533 136.533zM768 597.334h128v-128h-128v128zM682.667 469.334h-341.333v341.333h341.333v-341.333zM256 469.334h-128v128h128v-128zM128 384h128v-128h-128v128zM341.333 384h341.333v-341.333h-341.333v341.333zM768 384h128v-128h-128v128zM896 759.467v-76.8h-128v128h76.8c29.867 0 51.2-21.333 51.2-51.2zM179.2 810.667h76.8v-128h-128v76.8c0 29.867 21.333 51.2 51.2 51.2zM128 93.867v76.8h128v-128h-76.8c-29.867 0-51.2 21.333-51.2 51.2zM844.8 42.667h-76.8v128h128v-76.8c0-29.867-21.333-51.2-51.2-51.2z" />
<glyph unicode="&#xe961;" glyph-name="filter" d="M977.067 827.734c-8.533 17.067-21.333 25.6-38.4 25.6h-853.333c-17.067 0-29.867-8.533-38.4-25.6-8.533-12.8-4.267-29.867 4.267-42.667l332.8-392.533v-264.533c0-17.067 8.533-29.867 25.6-38.4l170.667-85.333c4.267-4.267 8.533-4.267 17.067-4.267s17.067 0 21.333 4.267c12.8 8.533 21.333 21.333 21.333 38.4v349.867l332.8 392.533c8.533 12.8 12.8 29.867 4.267 42.667zM563.2 435.2c-4.267-8.533-8.533-17.067-8.533-29.867v-294.4l-85.333 42.667v251.733c0 8.533-4.267 21.333-8.533 25.6l-281.6 337.067h669.867l-285.867-332.8z" />
<glyph unicode="&#xe962;" glyph-name="flag" d="M870.4 849.067c-17.067 8.533-34.133 4.267-46.933-8.533 0 0-38.4-29.867-140.8-29.867-55.467 0-102.4 21.333-153.6 38.4-55.467 25.6-115.2 46.933-187.733 46.933-136.533 0-192-46.933-200.533-55.467s-12.8-17.067-12.8-29.867v-810.667c0-25.6 17.067-42.667 42.667-42.667s42.667 17.067 42.667 42.667v277.333c17.067 8.533 59.733 21.333 128 21.333 55.467 0 102.4-21.333 153.6-38.4 55.467-21.333 115.2-46.933 187.733-46.933 136.533 0 192 46.933 200.533 55.467s12.8 17.067 12.8 29.867v512c0 17.067-8.533 29.867-25.6 38.4zM810.667 320c-17.067-8.533-59.733-21.333-128-21.333-55.467 0-102.4 21.333-153.6 38.4-55.467 25.6-115.2 46.933-187.733 46.933-55.467 0-98.133-8.533-128-17.067v422.4c17.067 8.533 59.733 21.333 128 21.333 55.467 0 102.4-21.333 153.6-38.4 55.467-25.6 115.2-46.933 187.733-46.933 55.467 0 98.133 8.533 128 17.067v-422.4z" />
<glyph unicode="&#xe963;" glyph-name="folder" d="M853.333 725.334h-362.667l-72.533 110.933c-8.533 8.533-21.333 17.067-34.133 17.067h-213.333c-72.533 0-128-55.467-128-128v-597.333c0-72.533 55.467-128 128-128h682.667c72.533 0 128 55.467 128 128v469.333c0 72.533-55.467 128-128 128zM896 128c0-25.6-17.067-42.667-42.667-42.667h-682.667c-25.6 0-42.667 17.067-42.667 42.667v597.333c0 25.6 17.067 42.667 42.667 42.667h192l72.533-110.933c8.533-8.533 21.333-17.067 34.133-17.067h384c25.6 0 42.667-17.067 42.667-42.667v-469.333z" />
<glyph unicode="&#xe964;" glyph-name="folder-minus" d="M853.333 725.334h-362.667l-72.533 110.933c-8.533 8.533-21.333 17.067-34.133 17.067h-213.333c-72.533 0-128-55.467-128-128v-597.333c0-72.533 55.467-128 128-128h682.667c72.533 0 128 55.467 128 128v469.333c0 72.533-55.467 128-128 128zM896 128c0-25.6-17.067-42.667-42.667-42.667h-682.667c-25.6 0-42.667 17.067-42.667 42.667v597.333c0 25.6 17.067 42.667 42.667 42.667h192l72.533-110.933c8.533-8.533 21.333-17.067 34.133-17.067h384c25.6 0 42.667-17.067 42.667-42.667v-469.333zM640 384h-256c-25.6 0-42.667-17.067-42.667-42.667s17.067-42.667 42.667-42.667h256c25.6 0 42.667 17.067 42.667 42.667s-17.067 42.667-42.667 42.667z" />
<glyph unicode="&#xe965;" glyph-name="folder-plus" d="M853.333 725.334h-362.667l-72.533 110.933c-8.533 8.533-21.333 17.067-34.133 17.067h-213.333c-72.533 0-128-55.467-128-128v-597.333c0-72.533 55.467-128 128-128h682.667c72.533 0 128 55.467 128 128v469.333c0 72.533-55.467 128-128 128zM896 128c0-25.6-17.067-42.667-42.667-42.667h-682.667c-25.6 0-42.667 17.067-42.667 42.667v597.333c0 25.6 17.067 42.667 42.667 42.667h192l72.533-110.933c8.533-8.533 21.333-17.067 34.133-17.067h384c25.6 0 42.667-17.067 42.667-42.667v-469.333zM640 384h-85.333v85.333c0 25.6-17.067 42.667-42.667 42.667s-42.667-17.067-42.667-42.667v-85.333h-85.333c-25.6 0-42.667-17.067-42.667-42.667s17.067-42.667 42.667-42.667h85.333v-85.333c0-25.6 17.067-42.667 42.667-42.667s42.667 17.067 42.667 42.667v85.333h85.333c25.6 0 42.667 17.067 42.667 42.667s-17.067 42.667-42.667 42.667z" />
<glyph unicode="&#xe966;" glyph-name="gift" d="M938.667 682.667h-102.4c12.8 21.333 17.067 42.667 17.067 64 0 81.067-68.267 149.333-149.333 149.333-98.133 0-157.867-68.267-192-132.267-34.133 64-93.867 132.267-192 132.267-81.067 0-149.333-68.267-149.333-149.333 0-21.333 4.267-42.667 17.067-64h-102.4c-25.6 0-42.667-17.067-42.667-42.667v-213.333c0-25.6 17.067-42.667 42.667-42.667h42.667v-384c0-25.6 17.067-42.667 42.667-42.667h682.667c25.6 0 42.667 17.067 42.667 42.667v384h42.667c25.6 0 42.667 17.067 42.667 42.667v213.333c0 25.6-17.067 42.667-42.667 42.667zM704 810.667c34.133 0 64-29.867 64-64s-29.867-64-64-64h-136.533c21.333 51.2 64 128 136.533 128zM256 746.667c0 34.133 29.867 64 64 64 72.533 0 115.2-76.8 136.533-128h-136.533c-34.133 0-64 29.867-64 64zM128 597.334h341.333v-128h-341.333v128zM213.333 384h256v-341.333h-256v341.333zM810.667 42.667h-256v341.333h256v-341.333zM896 469.334h-341.333v128h341.333v-128z" />
<glyph unicode="&#xe967;" glyph-name="git-branch" d="M938.667 682.667c0 93.867-76.8 170.667-170.667 170.667s-170.667-76.8-170.667-170.667c0-76.8 55.467-145.067 128-162.133-17.067-157.867-145.067-285.867-302.933-302.933-17.067 59.733-64 106.667-119.467 119.467v473.6c0 25.6-17.067 42.667-42.667 42.667s-46.933-17.067-46.933-42.667v-473.6c-72.533-17.067-128-85.333-128-166.4 0-93.867 76.8-170.667 170.667-170.667 81.067 0 145.067 55.467 166.4 128 204.8 17.067 371.2 183.467 388.267 388.267 72.533 21.333 128 85.333 128 166.4zM256 85.334c-46.933 0-85.333 38.4-85.333 85.333s38.4 85.333 85.333 85.333 85.333-38.4 85.333-85.333-38.4-85.333-85.333-85.333zM768 597.334c-46.933 0-85.333 38.4-85.333 85.333s38.4 85.333 85.333 85.333 85.333-38.4 85.333-85.333-38.4-85.333-85.333-85.333z" />
<glyph unicode="&#xe968;" glyph-name="git-commit" d="M981.333 469.334h-256c0 0-4.267 0-4.267 0-21.333 98.133-106.667 170.667-209.067 170.667s-187.733-72.533-209.067-170.667c0 0-4.267 0-4.267 0h-256c-25.6 0-42.667-17.067-42.667-42.667s17.067-42.667 42.667-42.667h256c0 0 4.267 0 4.267 0 21.333-98.133 106.667-170.667 209.067-170.667s187.733 72.533 209.067 170.667c0 0 4.267 0 4.267 0h256c25.6 0 42.667 17.067 42.667 42.667s-21.333 42.667-42.667 42.667zM512 298.667c-72.533 0-128 55.467-128 128s55.467 128 128 128 128-55.467 128-128-55.467-128-128-128z" />
<glyph unicode="&#xe969;" glyph-name="git-merge" d="M768 341.334c-76.8 0-145.067-55.467-162.133-128-157.867 17.067-285.867 145.067-302.933 302.933 72.533 21.333 128 85.333 128 162.133 0 93.867-76.8 170.667-170.667 170.667s-174.933-72.533-174.933-166.4c0-81.067 55.467-145.067 128-166.4v-473.6c0-25.6 17.067-42.667 42.667-42.667s42.667 17.067 42.667 42.667v256c72.533-93.867 179.2-157.867 302.933-170.667 17.067-72.533 85.333-132.267 166.4-132.267 93.867 0 170.667 76.8 170.667 170.667s-76.8 174.933-170.667 174.933zM170.667 682.667c0 46.933 38.4 85.333 85.333 85.333s85.333-38.4 85.333-85.333-38.4-85.333-85.333-85.333-85.333 38.4-85.333 85.333zM768 85.334c-46.933 0-85.333 38.4-85.333 85.333s38.4 85.333 85.333 85.333 85.333-38.4 85.333-85.333-38.4-85.333-85.333-85.333z" />
<glyph unicode="&#xe96a;" glyph-name="git-pull-request" d="M810.667 337.067v260.267c0 72.533-55.467 128-128 128h-128c-25.6 0-42.667-17.067-42.667-42.667s17.067-42.667 42.667-42.667h128c25.6 0 42.667-17.067 42.667-42.667v-260.267c-72.533-17.067-128-85.333-128-166.4 0-93.867 76.8-170.667 170.667-170.667s170.667 76.8 170.667 170.667c0 81.067-55.467 145.067-128 166.4zM768 85.334c-46.933 0-85.333 38.4-85.333 85.333s38.4 85.333 85.333 85.333 85.333-38.4 85.333-85.333-38.4-85.333-85.333-85.333zM256 853.334c-93.867 0-170.667-76.8-170.667-170.667 0-81.067 55.467-145.067 128-166.4v-473.6c0-25.6 17.067-42.667 42.667-42.667s42.667 17.067 42.667 42.667v473.6c72.533 17.067 128 85.333 128 166.4 0 93.867-76.8 170.667-170.667 170.667zM256 597.334c-46.933 0-85.333 38.4-85.333 85.333s38.4 85.333 85.333 85.333 85.333-38.4 85.333-85.333-38.4-85.333-85.333-85.333z" />
<glyph unicode="&#xe96b;" glyph-name="github" d="M960 576c0 64-21.333 119.467-59.733 170.667 12.8 55.467 8.533 115.2-12.8 166.4-4.267 12.8-12.8 21.333-25.6 25.6-17.067 4.267-72.533 12.8-187.733-59.733-93.867 21.333-192 21.333-281.6 0-115.2 72.533-170.667 64-187.733 59.733-12.8-4.267-21.333-12.8-25.6-25.6-25.6-55.467-29.867-110.933-12.8-166.4-38.4-51.2-59.733-110.933-59.733-170.667 0-230.4 128-302.933 247.467-328.533-8.533-29.867-12.8-55.467-12.8-81.067v-4.267c-89.6-17.067-119.467 17.067-153.6 64-21.333 29.867-46.933 64-93.867 72.533-21.333 4.267-46.933-8.533-51.2-29.867s8.533-46.933 29.867-51.2c12.8-4.267 29.867-21.333 46.933-42.667 38.4-51.2 93.867-119.467 221.867-102.4v-72.533c0-25.6 17.067-42.667 42.667-42.667s42.667 17.067 42.667 42.667v123.733c0 0 0 4.267 0 4.267v38.4c0 29.867 8.533 55.467 29.867 76.8 12.8 12.8 17.067 29.867 8.533 42.667-4.267 17.067-17.067 25.6-34.133 29.867-123.733 17.067-238.933 55.467-238.933 256 0 51.2 17.067 93.867 51.2 132.267 12.8 12.8 12.8 29.867 8.533 42.667-12.8 38.4-12.8 72.533-4.267 106.667 21.333-4.267 59.733-17.067 110.933-55.467 12.8-8.533 25.6-8.533 38.4-4.267 89.6 25.6 187.733 25.6 277.333 0 12.8-4.267 25.6 0 34.133 4.267 55.467 38.4 93.867 51.2 110.933 55.467 8.533-34.133 8.533-68.267-4.267-102.4-4.267-17.067-4.267-34.133 8.533-42.667 34.133-34.133 51.2-81.067 51.2-132.267 0-200.533-115.2-243.2-238.933-256-17.067 0-29.867-12.8-34.133-29.867s0-34.133 8.533-42.667c21.333-21.333 29.867-51.2 29.867-81.067v-166.4c0-25.6 17.067-42.667 42.667-42.667s42.667 17.067 42.667 42.667v162.133c4.267 29.867 0 55.467-12.8 81.067 102.4 21.333 247.467 89.6 247.467 332.8z" />
<glyph unicode="&#xe96c;" glyph-name="gitlab" d="M1019.733 379.734l-157.867 477.867c-4.267 8.533-8.533 17.067-17.067 25.6-21.333 21.333-59.733 21.333-81.067 0-8.533-4.267-12.8-12.8-17.067-25.6l-93.867-290.133h-281.6l-93.867 290.133c-4.267 8.533-8.533 17.067-17.067 25.6-21.333 21.333-59.733 21.333-81.067 0-8.533-4.267-12.8-12.8-17.067-25.6l-157.867-477.867c-12.8-34.133 0-68.267 29.867-89.6l452.267-328.533c8.533-4.267 17.067-8.533 25.6-8.533s17.067 4.267 25.6 8.533l452.267 328.533c29.867 17.067 42.667 55.467 29.867 89.6zM512 46.934l-426.667 307.2 132.267 405.333 81.067-247.467c4.267-17.067 21.333-29.867 42.667-29.867h341.333c17.067 0 34.133 12.8 42.667 29.867l81.067 247.467 81.067-247.467 51.2-153.6-426.667-311.467z" />
<glyph unicode="&#xe96d;" glyph-name="globe" d="M512 896c-260.267 0-469.333-209.067-469.333-469.333s209.067-469.333 469.333-469.333 469.333 209.067 469.333 469.333-209.067 469.333-469.333 469.333zM891.733 469.334h-170.667c-8.533 119.467-46.933 230.4-115.2 328.533 153.6-38.4 268.8-170.667 285.867-328.533zM388.267 384h251.733c-12.8-115.2-55.467-226.133-123.733-315.733-76.8 89.6-119.467 200.533-128 315.733zM388.267 469.334c12.8 115.2 55.467 226.133 123.733 315.733 72.533-93.867 115.2-204.8 123.733-315.733h-247.467zM413.867 797.867c-64-98.133-102.4-209.067-110.933-328.533h-170.667c17.067 157.867 132.267 290.133 281.6 328.533zM132.267 384h170.667c8.533-119.467 46.933-230.4 115.2-328.533-153.6 38.4-268.8 170.667-285.867 328.533zM610.133 55.467c64 98.133 102.4 209.067 115.2 328.533h170.667c-21.333-157.867-136.533-290.133-285.867-328.533z" />
<glyph unicode="&#xe96e;" glyph-name="grid" d="M426.667 853.334h-298.667c-25.6 0-42.667-17.067-42.667-42.667v-298.667c0-25.6 17.067-42.667 42.667-42.667h298.667c25.6 0 42.667 17.067 42.667 42.667v298.667c0 25.6-17.067 42.667-42.667 42.667zM384 554.667h-213.333v213.333h213.333v-213.333zM896 853.334h-298.667c-25.6 0-42.667-17.067-42.667-42.667v-298.667c0-25.6 17.067-42.667 42.667-42.667h298.667c25.6 0 42.667 17.067 42.667 42.667v298.667c0 25.6-17.067 42.667-42.667 42.667zM853.333 554.667h-213.333v213.333h213.333v-213.333zM896 384h-298.667c-25.6 0-42.667-17.067-42.667-42.667v-298.667c0-25.6 17.067-42.667 42.667-42.667h298.667c25.6 0 42.667 17.067 42.667 42.667v298.667c0 25.6-17.067 42.667-42.667 42.667zM853.333 85.334h-213.333v213.333h213.333v-213.333zM426.667 384h-298.667c-25.6 0-42.667-17.067-42.667-42.667v-298.667c0-25.6 17.067-42.667 42.667-42.667h298.667c25.6 0 42.667 17.067 42.667 42.667v298.667c0 25.6-17.067 42.667-42.667 42.667zM384 85.334h-213.333v213.333h213.333v-213.333z" />
<glyph unicode="&#xe96f;" glyph-name="hard-drive" d="M977.067 443.734c0 0 0 0 0 0l-149.333 294.4c-21.333 42.667-64 72.533-115.2 72.533h-405.333c-46.933 0-89.6-25.6-110.933-72.533l-145.067-294.4c0 0 0 0 0 0-8.533-4.267-8.533-8.533-8.533-17.067v-256c0-72.533 55.467-128 128-128h682.667c72.533 0 128 55.467 128 128v256c0 8.533 0 12.8-4.267 17.067zM268.8 699.734c0 0 0 0 0 0 8.533 17.067 25.6 25.6 38.4 25.6h405.333c17.067 0 29.867-8.533 38.4-25.6l115.2-230.4h-712.533l115.2 230.4zM853.333 128h-682.667c-25.6 0-42.667 17.067-42.667 42.667v213.333h768v-213.333c0-25.6-17.067-42.667-42.667-42.667zM226.133 285.867c-8.533-8.533-12.8-17.067-12.8-29.867s4.267-21.333 12.8-29.867c8.533-8.533 17.067-12.8 29.867-12.8s21.333 4.267 29.867 12.8c8.533 8.533 12.8 17.067 12.8 29.867s-4.267 21.333-12.8 29.867c-17.067 17.067-42.667 17.067-59.733 0zM396.8 285.867c-8.533-8.533-12.8-17.067-12.8-29.867s4.267-21.333 12.8-29.867c8.533-8.533 17.067-12.8 29.867-12.8s21.333 4.267 29.867 12.8c8.533 8.533 12.8 21.333 12.8 29.867s-4.267 21.333-12.8 29.867c-17.067 17.067-42.667 17.067-59.733 0z" />
<glyph unicode="&#xe970;" glyph-name="hash" d="M853.333 341.334h-179.2l17.067 170.667h162.133c25.6 0 42.667 17.067 42.667 42.667s-17.067 42.667-42.667 42.667h-149.333l21.333 209.067c4.267 21.333-12.8 42.667-38.4 46.933-21.333 4.267-42.667-12.8-46.933-38.4l-25.6-217.6h-170.667l25.6 209.067c4.267 21.333-12.8 42.667-38.4 46.933-21.333 4.267-42.667-12.8-46.933-38.4l-25.6-217.6h-187.733c-25.6 0-42.667-17.067-42.667-42.667s17.067-42.667 42.667-42.667h179.2l-17.067-170.667h-162.133c-25.6 0-42.667-17.067-42.667-42.667s17.067-42.667 42.667-42.667h149.333l-21.333-209.067c-4.267-21.333 12.8-42.667 38.4-46.933 0 0 4.267 0 4.267 0 21.333 0 38.4 17.067 42.667 38.4l25.6 217.6h170.667l-25.6-209.067c-4.267-21.333 12.8-42.667 38.4-46.933 0 0 4.267 0 4.267 0 21.333 0 38.4 17.067 42.667 38.4l25.6 217.6h187.733c25.6 0 42.667 17.067 42.667 42.667s-17.067 42.667-42.667 42.667zM418.133 341.334l17.067 170.667h170.667l-17.067-170.667h-170.667z" />
<glyph unicode="&#xe971;" glyph-name="headphones" d="M512 853.334c-234.667 0-426.667-192-426.667-426.667v-298.667c0-72.533 55.467-128 128-128h42.667c72.533 0 128 55.467 128 128v128c0 72.533-55.467 128-128 128h-85.333v42.667c0 187.733 153.6 341.333 341.333 341.333s341.333-153.6 341.333-341.333v-42.667h-85.333c-72.533 0-128-55.467-128-128v-128c0-72.533 55.467-128 128-128h42.667c72.533 0 128 55.467 128 128v298.667c0 234.667-192 426.667-426.667 426.667zM256 298.667c25.6 0 42.667-17.067 42.667-42.667v-128c0-25.6-17.067-42.667-42.667-42.667h-42.667c-25.6 0-42.667 17.067-42.667 42.667v170.667h85.333zM853.333 128c0-25.6-17.067-42.667-42.667-42.667h-42.667c-25.6 0-42.667 17.067-42.667 42.667v128c0 25.6 17.067 42.667 42.667 42.667h85.333v-170.667z" />
<glyph unicode="&#xe972;" glyph-name="heart" d="M917.333 772.267v0c-51.2 51.2-119.467 81.067-192 81.067v0c-72.533 0-145.067-29.867-196.267-81.067 0 0 0 0 0 0l-17.067-17.067-17.067 17.067c-51.2 51.2-119.467 81.067-196.267 81.067-72.533 0-140.8-29.867-192-81.067s-85.333-123.733-85.333-196.267 29.867-145.067 81.067-196.267l375.467-375.467c8.533-8.533 17.067-12.8 29.867-12.8s21.333 4.267 29.867 12.8l375.467 375.467c115.2 106.667 115.2 285.867 4.267 392.533zM857.6 439.467l-345.6-345.6-345.6 345.6c-76.8 76.8-76.8 196.267 0 273.067 34.133 38.4 85.333 55.467 132.267 55.467 51.2 0 98.133-17.067 136.533-55.467l46.933-46.933c17.067-17.067 42.667-17.067 59.733 0l42.667 46.933c0 0 0 0 0 0 38.4 34.133 85.333 55.467 140.8 55.467 0 0 0 0 0 0 51.2 0 98.133-21.333 136.533-55.467v0c34.133-38.4 55.467-85.333 55.467-136.533s-21.333-98.133-59.733-136.533z" />
<glyph unicode="&#xe973;" glyph-name="help-circle" d="M512 896c-260.267 0-469.333-209.067-469.333-469.333s209.067-469.333 469.333-469.333 469.333 209.067 469.333 469.333-209.067 469.333-469.333 469.333zM512 42.667c-213.333 0-384 170.667-384 384s170.667 384 384 384c213.333 0 384-170.667 384-384s-170.667-384-384-384zM563.2 674.134c-89.6 29.867-187.733-17.067-217.6-102.4-4.267-25.6 4.267-51.2 29.867-55.467 21.333-8.533 46.933 4.267 55.467 25.6 17.067 42.667 64 68.267 110.933 51.2 34.133-12.8 55.467-42.667 55.467-81.067 0-42.667-72.533-76.8-98.133-89.6-21.333-8.533-34.133-29.867-25.6-55.467 4.267-17.067 21.333-29.867 38.4-29.867 4.267 0 8.533 0 12.8 4.267 17.067 4.267 157.867 55.467 157.867 166.4-4.267 76.8-51.2 140.8-119.467 166.4zM482.133 243.2c-8.533-8.533-12.8-17.067-12.8-29.867s4.267-21.333 12.8-29.867c8.533-8.533 17.067-12.8 29.867-12.8s21.333 4.267 29.867 12.8c8.533 8.533 12.8 21.333 12.8 29.867s-4.267 21.333-12.8 29.867c-17.067 17.067-42.667 17.067-59.733 0z" />
<glyph unicode="&#xe974;" glyph-name="home" d="M921.6 588.8l-384 298.667c-17.067 12.8-38.4 12.8-51.2 0l-384-298.667c-12.8-8.533-17.067-21.333-17.067-34.133v-469.333c0-72.533 55.467-128 128-128h597.333c72.533 0 128 55.467 128 128v469.333c0 12.8-4.267 25.6-17.067 34.133zM597.333 42.667h-170.667v341.333h170.667v-341.333zM853.333 85.334c0-25.6-17.067-42.667-42.667-42.667h-128v384c0 25.6-17.067 42.667-42.667 42.667h-256c-25.6 0-42.667-17.067-42.667-42.667v-384h-128c-25.6 0-42.667 17.067-42.667 42.667v448l341.333 264.533 341.333-264.533v-448z" />
<glyph unicode="&#xe975;" glyph-name="image" d="M810.667 853.334h-597.333c-72.533 0-128-55.467-128-128v-597.333c0-72.533 55.467-128 128-128h597.333c72.533 0 128 55.467 128 128v597.333c0 72.533-55.467 128-128 128zM170.667 725.334c0 25.6 17.067 42.667 42.667 42.667h597.333c25.6 0 42.667-17.067 42.667-42.667v-324.267l-140.8 140.8c-17.067 17.067-42.667 17.067-59.733 0l-452.267-452.267c-17.067 4.267-29.867 21.333-29.867 38.4v597.333zM810.667 85.334h-494.933l366.933 366.933 170.667-170.667v-153.6c0-25.6-17.067-42.667-42.667-42.667zM362.667 469.334c59.733 0 106.667 46.933 106.667 106.667s-46.933 106.667-106.667 106.667-106.667-46.933-106.667-106.667 46.933-106.667 106.667-106.667zM362.667 597.334c12.8 0 21.333-8.533 21.333-21.333s-8.533-21.333-21.333-21.333-21.333 8.533-21.333 21.333 8.533 21.333 21.333 21.333z" />
<glyph unicode="&#xe976;" glyph-name="inbox" d="M977.067 443.734c0 0 0 0 0 0l-149.333 294.4c-21.333 42.667-64 72.533-115.2 72.533h-405.333c-46.933 0-89.6-25.6-110.933-72.533l-145.067-294.4c0 0 0 0 0 0-8.533-4.267-8.533-8.533-8.533-17.067v-256c0-72.533 55.467-128 128-128h682.667c72.533 0 128 55.467 128 128v256c0 8.533 0 12.8-4.267 17.067zM268.8 699.734c0 0 0 0 0 0 8.533 17.067 25.6 25.6 38.4 25.6h405.333c17.067 0 29.867-8.533 38.4-25.6l115.2-230.4h-183.467c-12.8 0-25.6-8.533-34.133-17.067l-72.533-110.933h-123.733l-72.533 110.933c-12.8 8.533-25.6 17.067-38.4 17.067h-187.733l115.2 230.4zM853.333 128h-682.667c-25.6 0-42.667 17.067-42.667 42.667v213.333h192l72.533-110.933c8.533-8.533 21.333-17.067 34.133-17.067h170.667c12.8 0 25.6 8.533 34.133 17.067l72.533 110.933h192v-213.333c0-25.6-17.067-42.667-42.667-42.667z" />
<glyph unicode="&#xe977;" glyph-name="info" d="M512 896c-260.267 0-469.333-209.067-469.333-469.333s209.067-469.333 469.333-469.333 469.333 209.067 469.333 469.333-209.067 469.333-469.333 469.333zM512 42.667c-213.333 0-384 170.667-384 384s170.667 384 384 384c213.333 0 384-170.667 384-384s-170.667-384-384-384zM512 469.334c-25.6 0-42.667-17.067-42.667-42.667v-170.667c0-25.6 17.067-42.667 42.667-42.667s42.667 17.067 42.667 42.667v170.667c0 25.6-17.067 42.667-42.667 42.667zM482.133 627.2c-8.533-8.533-12.8-17.067-12.8-29.867s4.267-21.333 12.8-29.867c8.533-8.533 17.067-12.8 29.867-12.8s21.333 4.267 29.867 12.8c8.533 8.533 12.8 17.067 12.8 29.867s-4.267 21.333-12.8 29.867c-17.067 17.067-42.667 17.067-59.733 0z" />
<glyph unicode="&#xe978;" glyph-name="instagram" d="M725.333 896h-426.667c-140.8 0-256-115.2-256-256v-426.667c0-140.8 115.2-256 256-256h426.667c140.8 0 256 115.2 256 256v426.667c0 140.8-115.2 256-256 256zM896 213.334c0-93.867-76.8-170.667-170.667-170.667h-426.667c-93.867 0-170.667 76.8-170.667 170.667v426.667c0 93.867 76.8 170.667 170.667 170.667h426.667c93.867 0 170.667-76.8 170.667-170.667v-426.667zM546.133 640c-21.333 4.267-42.667 4.267-64 0-115.2-17.067-196.267-128-179.2-243.2 8.533-55.467 38.4-106.667 85.333-140.8 38.4-25.6 81.067-42.667 128-42.667 8.533 0 21.333 0 29.867 4.267 55.467 8.533 106.667 38.4 140.8 85.333s46.933 102.4 38.4 157.867c-12.8 93.867-85.333 166.4-179.2 179.2zM618.667 354.134c-21.333-25.6-51.2-46.933-85.333-51.2-68.267-8.533-136.533 38.4-145.067 106.667-12.8 68.267 38.4 136.533 106.667 145.067 4.267 0 12.8 0 17.067 0s12.8 0 17.067 0c55.467-8.533 98.133-51.2 106.667-106.667 8.533-34.133 0-68.267-17.067-93.867zM716.8 691.2c-8.533-8.533-12.8-17.067-12.8-29.867s4.267-21.333 12.8-29.867c8.533-8.533 21.333-12.8 29.867-12.8 12.8 0 21.333 4.267 29.867 12.8s12.8 21.333 12.8 29.867c0 12.8-4.267 21.333-12.8 29.867-17.067 17.067-42.667 17.067-59.733 0z" />
<glyph unicode="&#xe979;" glyph-name="italic" d="M810.667 810.667h-384c-25.6 0-42.667-17.067-42.667-42.667s17.067-42.667 42.667-42.667h153.6l-226.133-597.333h-140.8c-25.6 0-42.667-17.067-42.667-42.667s17.067-42.667 42.667-42.667h384c25.6 0 42.667 17.067 42.667 42.667s-17.067 42.667-42.667 42.667h-153.6l221.867 597.333h145.067c25.6 0 42.667 17.067 42.667 42.667s-17.067 42.667-42.667 42.667z" />
<glyph unicode="&#xe97a;" glyph-name="layers" d="M68.267 601.6l426.667-213.333c4.267-4.267 8.533-4.267 17.067-4.267s12.8 0 17.067 4.267l426.667 213.333c17.067 8.533 25.6 21.333 25.6 38.4s-8.533 29.867-25.6 38.4l-426.667 213.333c-12.8 4.267-25.6 4.267-38.4 0l-426.667-213.333c-12.8-8.533-21.333-21.333-21.333-38.4s8.533-29.867 25.6-38.4zM512 806.4l332.8-166.4-332.8-166.4-332.8 166.4 332.8 166.4zM921.6 251.734l-409.6-204.8-409.6 204.8c-21.333 8.533-46.933 0-55.467-17.067s0-46.933 17.067-55.467l426.667-213.333c8.533-8.533 12.8-8.533 21.333-8.533s12.8 0 17.067 4.267l426.667 213.333c21.333 8.533 29.867 34.133 17.067 55.467-8.533 21.333-34.133 29.867-51.2 21.333zM921.6 465.067l-409.6-204.8-409.6 204.8c-21.333 8.533-46.933 0-55.467-17.067-8.533-21.333 0-46.933 17.067-55.467l426.667-213.333c8.533-8.533 12.8-8.533 21.333-8.533s12.8 0 17.067 4.267l426.667 213.333c21.333 8.533 29.867 34.133 17.067 55.467-8.533 21.333-34.133 29.867-51.2 21.333z" />
<glyph unicode="&#xe97b;" glyph-name="layout" d="M810.667 853.334h-597.333c-72.533 0-128-55.467-128-128v-597.333c0-72.533 55.467-128 128-128h597.333c72.533 0 128 55.467 128 128v597.333c0 72.533-55.467 128-128 128zM213.333 768h597.333c25.6 0 42.667-17.067 42.667-42.667v-128h-682.667v128c0 25.6 17.067 42.667 42.667 42.667zM170.667 128v384h170.667v-426.667h-128c-25.6 0-42.667 17.067-42.667 42.667zM810.667 85.334h-384v426.667h426.667v-384c0-25.6-17.067-42.667-42.667-42.667z" />
<glyph unicode="&#xe97c;" glyph-name="life-buoy" d="M844.8 93.867c85.333 85.333 136.533 200.533 136.533 332.8 0 128-51.2 247.467-136.533 332.8 0 0 0 0 0 0s0 0 0 0c-85.333 85.333-204.8 136.533-332.8 136.533s-247.467-51.2-332.8-136.533c0 0 0 0 0 0s0 0 0 0c-85.333-85.333-136.533-204.8-136.533-332.8s51.2-247.467 136.533-332.8c0 0 0 0 0 0s0 0 0 0c85.333-85.333 200.533-136.533 332.8-136.533 128 0 247.467 51.2 332.8 136.533 0 0 0 0 0 0s0 0 0 0zM810.667 187.734l-123.733 123.733c25.6 29.867 38.4 72.533 38.4 115.2s-12.8 85.333-34.133 119.467l119.467 119.467c51.2-64 85.333-149.333 85.333-238.933s-29.867-174.933-85.333-238.933zM384 426.667c0 72.533 55.467 128 128 128s128-55.467 128-128-55.467-128-128-128-128 55.467-128 128zM750.933 725.334l-123.733-123.733c-29.867 25.6-72.533 38.4-115.2 38.4s-85.333-12.8-119.467-34.133l-119.467 119.467c64 55.467 149.333 85.333 238.933 85.333s174.933-29.867 238.933-85.333zM213.333 665.6l123.733-123.733c-25.6-29.867-38.4-72.533-38.4-115.2s12.8-85.333 34.133-119.467l-119.467-119.467c-51.2 64-85.333 149.333-85.333 238.933s29.867 174.933 85.333 238.933zM273.067 128l123.733 123.733c29.867-25.6 72.533-38.4 115.2-38.4s85.333 12.8 119.467 34.133l123.733-123.733c-64-51.2-149.333-85.333-238.933-85.333-93.867 4.267-179.2 34.133-243.2 89.6z" />
<glyph unicode="&#xe97d;" glyph-name="link" d="M900.267 819.2c-98.133 98.133-256 98.133-354.133 0l-76.8-72.533c-17.067-17.067-17.067-42.667 0-59.733s42.667-17.067 59.733 0l72.533 72.533c68.267 64 170.667 64 238.933 0s68.267-174.933 4.267-238.933l-128-128c-4.267-4.267-12.8-12.8-17.067-17.067-76.8-55.467-183.467-42.667-238.933 34.133-12.8 17.067-42.667 21.333-59.733 8.533s-21.333-42.667-8.533-59.733c51.2-68.267 128-102.4 204.8-102.4 51.2 0 106.667 17.067 153.6 51.2 8.533 8.533 17.067 17.067 29.867 25.6l128 128c98.133 98.133 93.867 264.533-8.533 358.4zM490.667 166.4l-72.533-72.533c-68.267-64-170.667-64-238.933 0s-68.267 174.933-4.267 238.933l128 128c4.267 4.267 12.8 12.8 17.067 17.067 38.4 25.6 81.067 38.4 128 34.133 46.933-8.533 85.333-29.867 110.933-68.267 12.8-17.067 42.667-21.333 59.733-8.533s21.333 42.667 8.533 59.733c-42.667 55.467-102.4 89.6-166.4 98.133-64 12.8-132.267-4.267-187.733-46.933-8.533-8.533-17.067-17.067-25.6-25.6l-128-128c-98.133-102.4-93.867-264.533 4.267-362.667 51.2-46.933 115.2-72.533 179.2-72.533s128 25.6 179.2 72.533l72.533 72.533c17.067 17.067 17.067 42.667 0 59.733s-46.933 21.333-64 4.267z" />
<glyph unicode="&#xe97e;" glyph-name="link-2" d="M384 256h-128c-93.867 0-170.667 76.8-170.667 170.667s76.8 170.667 170.667 170.667h128c25.6 0 42.667 17.067 42.667 42.667s-17.067 42.667-42.667 42.667h-128c-140.8 0-256-115.2-256-256s115.2-256 256-256h128c25.6 0 42.667 17.067 42.667 42.667s-17.067 42.667-42.667 42.667zM768 682.667h-128c-25.6 0-42.667-17.067-42.667-42.667s17.067-42.667 42.667-42.667h128c93.867 0 170.667-76.8 170.667-170.667s-76.8-170.667-170.667-170.667h-128c-25.6 0-42.667-17.067-42.667-42.667s17.067-42.667 42.667-42.667h128c140.8 0 256 115.2 256 256s-115.2 256-256 256zM298.667 426.667c0-25.6 17.067-42.667 42.667-42.667h341.333c25.6 0 42.667 17.067 42.667 42.667s-17.067 42.667-42.667 42.667h-341.333c-25.6 0-42.667-17.067-42.667-42.667z" />
<glyph unicode="&#xe97f;" glyph-name="linkedin" d="M682.667 640c-166.4 0-298.667-132.267-298.667-298.667v-298.667c0-25.6 17.067-42.667 42.667-42.667h170.667c25.6 0 42.667 17.067 42.667 42.667v298.667c0 25.6 17.067 42.667 42.667 42.667s42.667-17.067 42.667-42.667v-298.667c0-25.6 17.067-42.667 42.667-42.667h170.667c25.6 0 42.667 17.067 42.667 42.667v298.667c0 166.4-132.267 298.667-298.667 298.667zM896 85.334h-85.333v256c0 72.533-55.467 128-128 128s-128-55.467-128-128v-256h-85.333v256c0 119.467 93.867 213.333 213.333 213.333s213.333-93.867 213.333-213.333v-256zM256 597.334h-170.667c-25.6 0-42.667-17.067-42.667-42.667v-512c0-25.6 17.067-42.667 42.667-42.667h170.667c25.6 0 42.667 17.067 42.667 42.667v512c0 25.6-17.067 42.667-42.667 42.667zM213.333 85.334h-85.333v426.667h85.333v-426.667zM170.667 896c-72.533 0-128-55.467-128-128s55.467-128 128-128 128 55.467 128 128-55.467 128-128 128zM170.667 725.334c-25.6 0-42.667 17.067-42.667 42.667s17.067 42.667 42.667 42.667 42.667-17.067 42.667-42.667-17.067-42.667-42.667-42.667z" />
<glyph unicode="&#xe980;" glyph-name="list" d="M341.333 640h554.667c25.6 0 42.667 17.067 42.667 42.667s-17.067 42.667-42.667 42.667h-554.667c-25.6 0-42.667-17.067-42.667-42.667s17.067-42.667 42.667-42.667zM896 469.334h-554.667c-25.6 0-42.667-17.067-42.667-42.667s17.067-42.667 42.667-42.667h554.667c25.6 0 42.667 17.067 42.667 42.667s-17.067 42.667-42.667 42.667zM896 213.334h-554.667c-25.6 0-42.667-17.067-42.667-42.667s17.067-42.667 42.667-42.667h554.667c25.6 0 42.667 17.067 42.667 42.667s-17.067 42.667-42.667 42.667zM98.133 712.534c-8.533-8.533-12.8-17.067-12.8-29.867s4.267-21.333 12.8-29.867c8.533-8.533 17.067-12.8 29.867-12.8s21.333 4.267 29.867 12.8c8.533 8.533 12.8 17.067 12.8 29.867s-4.267 21.333-12.8 29.867c-17.067 17.067-42.667 17.067-59.733 0zM98.133 456.534c-8.533-8.533-12.8-17.067-12.8-29.867s4.267-21.333 12.8-29.867c8.533-8.533 17.067-12.8 29.867-12.8s21.333 4.267 29.867 12.8c8.533 8.533 12.8 17.067 12.8 29.867s-4.267 21.333-12.8 29.867c-17.067 17.067-42.667 17.067-59.733 0zM98.133 200.534c-8.533-8.533-12.8-17.067-12.8-29.867s4.267-21.333 12.8-29.867c8.533-8.533 17.067-12.8 29.867-12.8s21.333 4.267 29.867 12.8c8.533 8.533 12.8 17.067 12.8 29.867s-4.267 21.333-12.8 29.867c-17.067 17.067-42.667 17.067-59.733 0z" />
<glyph unicode="&#xe981;" glyph-name="loader" d="M512 896c-25.6 0-42.667-17.067-42.667-42.667v-170.667c0-25.6 17.067-42.667 42.667-42.667s42.667 17.067 42.667 42.667v170.667c0 25.6-17.067 42.667-42.667 42.667zM512 213.334c-25.6 0-42.667-17.067-42.667-42.667v-170.667c0-25.6 17.067-42.667 42.667-42.667s42.667 17.067 42.667 42.667v170.667c0 25.6-17.067 42.667-42.667 42.667zM238.933 759.467c-17.067 17.067-42.667 17.067-59.733 0s-17.067-42.667 0-59.733l119.467-119.467c8.533-8.533 21.333-12.8 29.867-12.8s21.333 4.267 29.867 12.8c17.067 17.067 17.067 42.667 0 59.733l-119.467 119.467zM721.067 277.334c-17.067 17.067-42.667 17.067-59.733 0s-17.067-42.667 0-59.733l119.467-119.467c8.533-8.533 21.333-12.8 29.867-12.8s21.333 4.267 29.867 12.8c17.067 17.067 17.067 42.667 0 59.733l-119.467 119.467zM298.667 426.667c0 25.6-17.067 42.667-42.667 42.667h-170.667c-25.6 0-42.667-17.067-42.667-42.667s17.067-42.667 42.667-42.667h170.667c25.6 0 42.667 17.067 42.667 42.667zM938.667 469.334h-170.667c-25.6 0-42.667-17.067-42.667-42.667s17.067-42.667 42.667-42.667h170.667c25.6 0 42.667 17.067 42.667 42.667s-17.067 42.667-42.667 42.667zM302.933 277.334l-119.467-119.467c-17.067-17.067-17.067-42.667 0-59.733 8.533-8.533 21.333-12.8 29.867-12.8s21.333 4.267 29.867 12.8l119.467 119.467c17.067 17.067 17.067 42.667 0 59.733s-46.933 17.067-59.733 0zM691.2 563.2c12.8 0 21.333 4.267 29.867 12.8l119.467 119.467c17.067 17.067 17.067 42.667 0 59.733s-42.667 17.067-59.733 0l-119.467-119.467c-17.067-17.067-17.067-42.667 0-59.733 8.533-8.533 21.333-12.8 29.867-12.8z" />
<glyph unicode="&#xe982;" glyph-name="lock" d="M810.667 512h-42.667v128c0 140.8-115.2 256-256 256s-256-115.2-256-256v-128h-42.667c-72.533 0-128-55.467-128-128v-298.667c0-72.533 55.467-128 128-128h597.333c72.533 0 128 55.467 128 128v298.667c0 72.533-55.467 128-128 128zM341.333 640c0 93.867 76.8 170.667 170.667 170.667s170.667-76.8 170.667-170.667v-128h-341.333v128zM853.333 85.334c0-25.6-17.067-42.667-42.667-42.667h-597.333c-25.6 0-42.667 17.067-42.667 42.667v298.667c0 25.6 17.067 42.667 42.667 42.667h597.333c25.6 0 42.667-17.067 42.667-42.667v-298.667z" />
<glyph unicode="&#xe983;" glyph-name="log-in" d="M810.667 853.334h-170.667c-25.6 0-42.667-17.067-42.667-42.667s17.067-42.667 42.667-42.667h170.667c25.6 0 42.667-17.067 42.667-42.667v-597.333c0-25.6-17.067-42.667-42.667-42.667h-170.667c-25.6 0-42.667-17.067-42.667-42.667s17.067-42.667 42.667-42.667h170.667c72.533 0 128 55.467 128 128v597.333c0 72.533-55.467 128-128 128zM678.4 409.6c4.267 8.533 4.267 21.333 0 34.133-4.267 4.267-4.267 8.533-8.533 12.8l-213.333 213.333c-17.067 17.067-42.667 17.067-59.733 0s-17.067-42.667 0-59.733l140.8-140.8h-409.6c-25.6 0-42.667-17.067-42.667-42.667s17.067-42.667 42.667-42.667h409.6l-140.8-140.8c-17.067-17.067-17.067-42.667 0-59.733 8.533-8.533 17.067-12.8 29.867-12.8s21.333 4.267 29.867 12.8l213.333 213.333c4.267 4.267 8.533 8.533 8.533 12.8z" />
<glyph unicode="&#xe984;" glyph-name="log-out" d="M384 85.334h-170.667c-25.6 0-42.667 17.067-42.667 42.667v597.333c0 25.6 17.067 42.667 42.667 42.667h170.667c25.6 0 42.667 17.067 42.667 42.667s-17.067 42.667-42.667 42.667h-170.667c-72.533 0-128-55.467-128-128v-597.333c0-72.533 55.467-128 128-128h170.667c25.6 0 42.667 17.067 42.667 42.667s-17.067 42.667-42.667 42.667zM934.4 409.6c4.267 8.533 4.267 21.333 0 34.133-4.267 4.267-4.267 8.533-8.533 12.8l-213.333 213.333c-17.067 17.067-42.667 17.067-59.733 0s-17.067-42.667 0-59.733l140.8-140.8h-409.6c-25.6 0-42.667-17.067-42.667-42.667s17.067-42.667 42.667-42.667h409.6l-140.8-140.8c-17.067-17.067-17.067-42.667 0-59.733 8.533-8.533 21.333-12.8 29.867-12.8s21.333 4.267 29.867 12.8l213.333 213.333c4.267 4.267 8.533 8.533 8.533 12.8z" />
<glyph unicode="&#xe985;" glyph-name="mail" d="M853.333 810.667h-682.667c-72.533 0-128-55.467-128-128v-512c0-72.533 55.467-128 128-128h682.667c72.533 0 128 55.467 128 128v512c0 72.533-55.467 128-128 128zM170.667 725.334h682.667c17.067 0 29.867-8.533 38.4-25.6l-379.733-264.533-379.733 264.533c8.533 17.067 21.333 25.6 38.4 25.6zM853.333 128h-682.667c-25.6 0-42.667 17.067-42.667 42.667v430.933l358.4-251.733c8.533-4.267 17.067-8.533 25.6-8.533s17.067 4.267 25.6 8.533l358.4 251.733v-430.933c0-25.6-17.067-42.667-42.667-42.667z" />
<glyph unicode="&#xe986;" glyph-name="map" d="M1002.667 891.734c-12.8 8.533-29.867 8.533-42.667 0l-277.333-162.133-324.267 162.133c0 0 0 0 0 0s0 0-4.267 0c-4.267 4.267-8.533 4.267-12.8 4.267 0 0 0 0 0 0s0 0 0 0c-4.267 0-8.533 0-17.067-4.267 0 0 0 0-4.267 0 0 0-4.267 0-4.267 0l-298.667-170.667c-8.533-8.533-17.067-21.333-17.067-38.4v-682.667c0-17.067 8.533-29.867 21.333-38.4s29.867-8.533 42.667 0l277.333 162.133 320-162.133c0 0 0 0 0 0 8.533-4.267 12.8-4.267 21.333-4.267 4.267 0 8.533 0 12.8 4.267 0 0 4.267 0 4.267 0s0 0 4.267 0l298.667 170.667c12.8 8.533 21.333 21.333 21.333 38.4v682.667c0 17.067-8.533 29.867-21.333 38.4zM384 785.067l256-128v-588.8l-256 128v588.8zM85.333 657.067l213.333 123.733v-584.533l-213.333-123.733v584.533zM938.667 196.267l-213.333-123.733v584.533l213.333 123.733v-584.533z" />
<glyph unicode="&#xe987;" glyph-name="map-pin" d="M512 938.667c-234.667 0-426.667-192-426.667-426.667 0-315.733 388.267-580.267 401.067-588.8 8.533-4.267 17.067-8.533 25.6-8.533s17.067 4.267 25.6 8.533c12.8 8.533 401.067 273.067 401.067 588.8 0 234.667-192 426.667-426.667 426.667zM512 8.534c-81.067 59.733-341.333 273.067-341.333 503.467 0 187.733 153.6 341.333 341.333 341.333s341.333-153.6 341.333-341.333c0-230.4-260.267-443.733-341.333-503.467zM512 682.667c-93.867 0-170.667-76.8-170.667-170.667s76.8-170.667 170.667-170.667c93.867 0 170.667 76.8 170.667 170.667s-76.8 170.667-170.667 170.667zM512 426.667c-46.933 0-85.333 38.4-85.333 85.333s38.4 85.333 85.333 85.333c46.933 0 85.333-38.4 85.333-85.333s-38.4-85.333-85.333-85.333z" />
<glyph unicode="&#xe988;" glyph-name="maximize" d="M341.333 85.334h-128c-25.6 0-42.667 17.067-42.667 42.667v128c0 25.6-17.067 42.667-42.667 42.667s-42.667-17.067-42.667-42.667v-128c0-72.533 55.467-128 128-128h128c25.6 0 42.667 17.067 42.667 42.667s-17.067 42.667-42.667 42.667zM341.333 853.334h-128c-72.533 0-128-55.467-128-128v-128c0-25.6 17.067-42.667 42.667-42.667s42.667 17.067 42.667 42.667v128c0 25.6 17.067 42.667 42.667 42.667h128c25.6 0 42.667 17.067 42.667 42.667s-17.067 42.667-42.667 42.667zM810.667 853.334h-128c-25.6 0-42.667-17.067-42.667-42.667s17.067-42.667 42.667-42.667h128c25.6 0 42.667-17.067 42.667-42.667v-128c0-25.6 17.067-42.667 42.667-42.667s42.667 17.067 42.667 42.667v128c0 72.533-55.467 128-128 128zM896 298.667c-25.6 0-42.667-17.067-42.667-42.667v-128c0-25.6-17.067-42.667-42.667-42.667h-128c-25.6 0-42.667-17.067-42.667-42.667s17.067-42.667 42.667-42.667h128c72.533 0 128 55.467 128 128v128c0 25.6-17.067 42.667-42.667 42.667z" />
<glyph unicode="&#xe989;" glyph-name="maximize-2" d="M934.4 827.734c-4.267 8.533-12.8 17.067-21.333 21.333-4.267 4.267-12.8 4.267-17.067 4.267h-256c-25.6 0-42.667-17.067-42.667-42.667s17.067-42.667 42.667-42.667h153.6l-226.133-226.133c-17.067-17.067-17.067-42.667 0-59.733 8.533-8.533 21.333-12.8 29.867-12.8s21.333 4.267 29.867 12.8l226.133 226.133v-153.6c0-25.6 17.067-42.667 42.667-42.667s42.667 17.067 42.667 42.667v256c0 4.267 0 12.8-4.267 17.067zM396.8 371.2l-226.133-226.133v153.6c0 25.6-17.067 42.667-42.667 42.667s-42.667-17.067-42.667-42.667v-256c0-4.267 0-12.8 4.267-17.067 4.267-8.533 12.8-17.067 21.333-21.333 4.267-4.267 12.8-4.267 17.067-4.267h256c25.6 0 42.667 17.067 42.667 42.667s-17.067 42.667-42.667 42.667h-153.6l226.133 226.133c17.067 17.067 17.067 42.667 0 59.733s-42.667 17.067-59.733 0z" />
<glyph unicode="&#xe98a;" glyph-name="menu" d="M896 469.334h-768c-25.6 0-42.667-17.067-42.667-42.667s17.067-42.667 42.667-42.667h768c25.6 0 42.667 17.067 42.667 42.667s-17.067 42.667-42.667 42.667zM128 640h768c25.6 0 42.667 17.067 42.667 42.667s-17.067 42.667-42.667 42.667h-768c-25.6 0-42.667-17.067-42.667-42.667s17.067-42.667 42.667-42.667zM896 213.334h-768c-25.6 0-42.667-17.067-42.667-42.667s17.067-42.667 42.667-42.667h768c25.6 0 42.667 17.067 42.667 42.667s-17.067 42.667-42.667 42.667z" />
<glyph unicode="&#xe98b;" glyph-name="message-circle" d="M938.667 473.6c-12.8 204.8-174.933 371.2-384 379.733h-21.333c0 0 0 0 0 0-64 0-123.733-12.8-179.2-42.667-140.8-68.267-226.133-209.067-226.133-362.667 0-55.467 12.8-115.2 34.133-166.4l-76.8-226.133c-4.267-17.067 0-34.133 8.533-42.667 12.8-8.533 21.333-12.8 34.133-12.8 4.267 0 8.533 0 12.8 4.267l226.133 76.8c51.2-21.333 106.667-34.133 166.4-34.133 153.6 0 294.4 85.333 362.667 221.867 29.867 55.467 42.667 119.467 42.667 183.467v21.333zM853.333 448c0 0 0 0 0 0 0-51.2-12.8-98.133-34.133-145.067-55.467-110.933-162.133-174.933-285.867-174.933-51.2 0-98.133 12.8-140.8 34.133-8.533 4.267-21.333 4.267-34.133 4.267l-162.133-55.467 55.467 162.133c4.267 12.8 4.267 21.333-4.267 34.133-21.333 42.667-34.133 93.867-34.133 140.8 0 123.733 68.267 230.4 179.2 285.867 42.667 21.333 93.867 34.133 140.8 34.133 0 0 0 0 0 0h17.067c162.133-8.533 290.133-136.533 302.933-298.667v-21.333z" />
<glyph unicode="&#xe98c;" glyph-name="message-square" d="M810.667 853.334h-597.333c-72.533 0-128-55.467-128-128v-682.667c0-17.067 8.533-34.133 25.6-38.4 4.267-4.267 12.8-4.267 17.067-4.267 12.8 0 21.333 4.267 29.867 12.8l157.867 157.867h494.933c72.533 0 128 55.467 128 128v426.667c0 72.533-55.467 128-128 128zM853.333 298.667c0-25.6-17.067-42.667-42.667-42.667h-512c-12.8 0-21.333-4.267-29.867-12.8l-98.133-98.133v580.267c0 25.6 17.067 42.667 42.667 42.667h597.333c25.6 0 42.667-17.067 42.667-42.667v-426.667z" />
<glyph unicode="&#xe98d;" glyph-name="minimize" d="M256 298.667h-128c-25.6 0-42.667-17.067-42.667-42.667s17.067-42.667 42.667-42.667h128c25.6 0 42.667-17.067 42.667-42.667v-128c0-25.6 17.067-42.667 42.667-42.667s42.667 17.067 42.667 42.667v128c0 72.533-55.467 128-128 128zM768 554.667h128c25.6 0 42.667 17.067 42.667 42.667s-17.067 42.667-42.667 42.667h-128c-25.6 0-42.667 17.067-42.667 42.667v128c0 25.6-17.067 42.667-42.667 42.667s-42.667-17.067-42.667-42.667v-128c0-72.533 55.467-128 128-128zM896 298.667h-128c-72.533 0-128-55.467-128-128v-128c0-25.6 17.067-42.667 42.667-42.667s42.667 17.067 42.667 42.667v128c0 25.6 17.067 42.667 42.667 42.667h128c25.6 0 42.667 17.067 42.667 42.667s-17.067 42.667-42.667 42.667zM341.333 853.334c-25.6 0-42.667-17.067-42.667-42.667v-128c0-25.6-17.067-42.667-42.667-42.667h-128c-25.6 0-42.667-17.067-42.667-42.667s17.067-42.667 42.667-42.667h128c72.533 0 128 55.467 128 128v128c0 25.6-17.067 42.667-42.667 42.667z" />
<glyph unicode="&#xe98e;" glyph-name="minimize-2" d="M443.733 379.734c-4.267 4.267-12.8 4.267-17.067 4.267h-256c-25.6 0-42.667-17.067-42.667-42.667s17.067-42.667 42.667-42.667h153.6l-226.133-226.133c-17.067-17.067-17.067-42.667 0-59.733 8.533-8.533 17.067-12.8 29.867-12.8s21.333 4.267 29.867 12.8l226.133 226.133v-153.6c0-25.6 17.067-42.667 42.667-42.667s42.667 17.067 42.667 42.667v256c0 4.267 0 12.8-4.267 17.067-4.267 8.533-12.8 17.067-21.333 21.333zM925.867 840.534c-17.067 17.067-42.667 17.067-59.733 0l-226.133-226.133v153.6c0 25.6-17.067 42.667-42.667 42.667s-42.667-17.067-42.667-42.667v-256c0-4.267 0-12.8 4.267-17.067 4.267-8.533 12.8-17.067 21.333-21.333 4.267-4.267 12.8-4.267 17.067-4.267h256c25.6 0 42.667 17.067 42.667 42.667s-17.067 42.667-42.667 42.667h-153.6l226.133 226.133c17.067 17.067 17.067 42.667 0 59.733z" />
<glyph unicode="&#xe98f;" glyph-name="minus" d="M810.667 469.334h-597.333c-25.6 0-42.667-17.067-42.667-42.667s17.067-42.667 42.667-42.667h597.333c25.6 0 42.667 17.067 42.667 42.667s-17.067 42.667-42.667 42.667z" />
<glyph unicode="&#xe990;" glyph-name="minus-circle" d="M512 896c-260.267 0-469.333-209.067-469.333-469.333s209.067-469.333 469.333-469.333 469.333 209.067 469.333 469.333-209.067 469.333-469.333 469.333zM512 42.667c-213.333 0-384 170.667-384 384s170.667 384 384 384c213.333 0 384-170.667 384-384s-170.667-384-384-384zM682.667 469.334h-341.333c-25.6 0-42.667-17.067-42.667-42.667s17.067-42.667 42.667-42.667h341.333c25.6 0 42.667 17.067 42.667 42.667s-17.067 42.667-42.667 42.667z" />
<glyph unicode="&#xe991;" glyph-name="minus-square" d="M810.667 853.334h-597.333c-72.533 0-128-55.467-128-128v-597.333c0-72.533 55.467-128 128-128h597.333c72.533 0 128 55.467 128 128v597.333c0 72.533-55.467 128-128 128zM853.333 128c0-25.6-17.067-42.667-42.667-42.667h-597.333c-25.6 0-42.667 17.067-42.667 42.667v597.333c0 25.6 17.067 42.667 42.667 42.667h597.333c25.6 0 42.667-17.067 42.667-42.667v-597.333zM682.667 469.334h-341.333c-25.6 0-42.667-17.067-42.667-42.667s17.067-42.667 42.667-42.667h341.333c25.6 0 42.667 17.067 42.667 42.667s-17.067 42.667-42.667 42.667z" />
<glyph unicode="&#xe992;" glyph-name="more-horizontal" d="M597.333 426.667c0-47.128-38.205-85.333-85.333-85.333s-85.333 38.205-85.333 85.333c0 47.128 38.205 85.333 85.333 85.333s85.333-38.205 85.333-85.333zM896 426.667c0-47.128-38.205-85.333-85.333-85.333s-85.333 38.205-85.333 85.333c0 47.128 38.205 85.333 85.333 85.333s85.333-38.205 85.333-85.333zM298.667 426.667c0-47.128-38.205-85.333-85.333-85.333s-85.333 38.205-85.333 85.333c0 47.128 38.205 85.333 85.333 85.333s85.333-38.205 85.333-85.333z" />
<glyph unicode="&#xe993;" glyph-name="more-vertical" d="M597.333 426.667c0-47.128-38.205-85.333-85.333-85.333s-85.333 38.205-85.333 85.333c0 47.128 38.205 85.333 85.333 85.333s85.333-38.205 85.333-85.333zM597.333 725.334c0-47.128-38.205-85.333-85.333-85.333s-85.333 38.205-85.333 85.333c0 47.128 38.205 85.333 85.333 85.333s85.333-38.205 85.333-85.333zM597.333 128c0-47.128-38.205-85.333-85.333-85.333s-85.333 38.205-85.333 85.333c0 47.128 38.205 85.333 85.333 85.333s85.333-38.205 85.333-85.333z" />
<glyph unicode="&#xe994;" glyph-name="navigation" d="M968.533 883.2c-12.8 12.8-29.867 17.067-46.933 8.533l-810.667-384c-17.067-8.533-25.6-25.6-25.6-42.667s12.8-34.133 34.133-38.4l315.733-81.067 81.067-315.733c4.267-17.067 21.333-29.867 38.4-34.133 0 0 4.267 0 4.267 0 17.067 0 29.867 8.533 38.4 25.6l384 810.667c4.267 21.333 0 38.4-12.8 51.2zM567.467 170.667l-55.467 221.867c-4.267 17.067-17.067 25.6-29.867 29.867l-226.133 59.733 593.067 281.6-281.6-593.067z" />
</font>
</defs>
</svg>
